<?xml version="1.0" encoding="utf-8"?>
<svg version="1.1" xmlns:xlink="http://www.w3.org/1999/xlink" width="12px" height="12px" viewBox="757 604.5  12 12" xmlns="http://www.w3.org/2000/svg">
  <path d="M 763 604.5  C 766.36 604.5  769 607.14  769 610.5  C 769 613.86  766.36 616.5  763 616.5  C 759.64 616.5  757 613.86  757 610.5  C 757 607.14  759.64 604.5  763 604.5  Z " fill-rule="nonzero" fill="#f0f0f0" stroke="none" />
  <path d="M 763 605  C 766.08 605  768.5 607.42  768.5 610.5  C 768.5 613.58  766.08 616  763 616  C 759.92 616  757.5 613.58  757.5 610.5  C 757.5 607.42  759.92 605  763 605  Z " stroke-width="1" stroke="#797979" fill="none" />
  <path d="M 763 613.5  C 761.32 613.5  760 612.18  760 610.5  C 760 608.82  761.32 607.5  763 607.5  C 764.68 607.5  766 608.82  766 610.5  C 766 612.18  764.68 613.5  763 613.5  " fill-rule="nonzero" fill="#797979" stroke="none" />
</svg>