<?xml version="1.0" encoding="utf-8"?>
<svg version="1.1" xmlns:xlink="http://www.w3.org/1999/xlink" width="12px" height="12px" viewBox="510 559.5  12 12" xmlns="http://www.w3.org/2000/svg">
  <path d="M 516 559.5  C 519.36 559.5  522 562.14  522 565.5  C 522 568.86  519.36 571.5  516 571.5  C 512.64 571.5  510 568.86  510 565.5  C 510 562.14  512.64 559.5  516 559.5  Z " fill-rule="nonzero" fill="#ffffff" stroke="none" />
  <path d="M 516 560  C 519.08 560  521.5 562.42  521.5 565.5  C 521.5 568.58  519.08 571  516 571  C 512.92 571  510.5 568.58  510.5 565.5  C 510.5 562.42  512.92 560  516 560  Z " stroke-width="1" stroke="#797979" fill="none" />
  <path d="M 516 568.5  C 514.32 568.5  513 567.18  513 565.5  C 513 563.82  514.32 562.5  516 562.5  C 517.68 562.5  519 563.82  519 565.5  C 519 567.18  517.68 568.5  516 568.5  " fill-rule="nonzero" fill="#797979" stroke="none" />
</svg>