<?xml version="1.0" encoding="utf-8"?>
<svg version="1.1" xmlns:xlink="http://www.w3.org/1999/xlink" width="12px" height="12px" viewBox="757 589.5  12 12" xmlns="http://www.w3.org/2000/svg">
  <path d="M 763 589.5  C 766.36 589.5  769 592.14  769 595.5  C 769 598.86  766.36 601.5  763 601.5  C 759.64 601.5  757 598.86  757 595.5  C 757 592.14  759.64 589.5  763 589.5  Z " fill-rule="nonzero" fill="#f0f0f0" stroke="none" />
  <path d="M 763 590  C 766.08 590  768.5 592.42  768.5 595.5  C 768.5 598.58  766.08 601  763 601  C 759.92 601  757.5 598.58  757.5 595.5  C 757.5 592.42  759.92 590  763 590  Z " stroke-width="1" stroke="#797979" fill="none" />
  <path d="M 763 598.5  C 761.32 598.5  760 597.18  760 595.5  C 760 593.82  761.32 592.5  763 592.5  C 764.68 592.5  766 593.82  766 595.5  C 766 597.18  764.68 598.5  763 598.5  " fill-rule="nonzero" fill="#797979" stroke="none" />
</svg>