<?xml version="1.0" encoding="utf-8"?>
<svg version="1.1" xmlns:xlink="http://www.w3.org/1999/xlink" width="35px" height="35px" xmlns="http://www.w3.org/2000/svg">
  <g transform="matrix(1 0 0 1 -26 -695 )">
    <path d="M 43.5 695  C 53.3 695  61 702.7  61 712.5  C 61 722.3  53.3 730  43.5 730  C 33.7 730  26 722.3  26 712.5  C 26 702.7  33.7 695  43.5 695  Z " fill-rule="nonzero" fill="#ffffff" stroke="none" />
    <path d="M 43.5 695.5  C 53.02 695.5  60.5 702.98  60.5 712.5  C 60.5 722.02  53.02 729.5  43.5 729.5  C 33.98 729.5  26.5 722.02  26.5 712.5  C 26.5 702.98  33.98 695.5  43.5 695.5  Z " stroke-width="1" stroke="#797979" fill="none" />
  </g>
</svg>