<?xml version="1.0" encoding="utf-8"?>
<svg version="1.1" xmlns:xlink="http://www.w3.org/1999/xlink" width="12px" height="12px" viewBox="599 215.5  12 12" xmlns="http://www.w3.org/2000/svg">
  <path d="M 605 215.5  C 608.36 215.5  611 218.14  611 221.5  C 611 224.86  608.36 227.5  605 227.5  C 601.64 227.5  599 224.86  599 221.5  C 599 218.14  601.64 215.5  605 215.5  Z " fill-rule="nonzero" fill="#ffffff" stroke="none" />
  <path d="M 605 216  C 608.08 216  610.5 218.42  610.5 221.5  C 610.5 224.58  608.08 227  605 227  C 601.92 227  599.5 224.58  599.5 221.5  C 599.5 218.42  601.92 216  605 216  Z " stroke-width="1" stroke="#797979" fill="none" />
  <path d="M 605 224.5  C 603.32 224.5  602 223.18  602 221.5  C 602 219.82  603.32 218.5  605 218.5  C 606.68 218.5  608 219.82  608 221.5  C 608 223.18  606.68 224.5  605 224.5  " fill-rule="nonzero" fill="#797979" stroke="none" />
</svg>