<?xml version="1.0" encoding="utf-8"?>
<svg version="1.1" xmlns:xlink="http://www.w3.org/1999/xlink" width="12px" height="12px" viewBox="535 215.5  12 12" xmlns="http://www.w3.org/2000/svg">
  <path d="M 541 215.5  C 544.36 215.5  547 218.14  547 221.5  C 547 224.86  544.36 227.5  541 227.5  C 537.64 227.5  535 224.86  535 221.5  C 535 218.14  537.64 215.5  541 215.5  Z " fill-rule="nonzero" fill="#f0f0f0" stroke="none" />
  <path d="M 541 216  C 544.08 216  546.5 218.42  546.5 221.5  C 546.5 224.58  544.08 227  541 227  C 537.92 227  535.5 224.58  535.5 221.5  C 535.5 218.42  537.92 216  541 216  Z " stroke-width="1" stroke="#797979" fill="none" />
  <path d="M 541 224.5  C 539.32 224.5  538 223.18  538 221.5  C 538 219.82  539.32 218.5  541 218.5  C 542.68 218.5  544 219.82  544 221.5  C 544 223.18  542.68 224.5  541 224.5  " fill-rule="nonzero" fill="#797979" stroke="none" />
</svg>