<?xml version="1.0" encoding="utf-8"?>
<svg version="1.1" xmlns:xlink="http://www.w3.org/1999/xlink" width="12px" height="12px" viewBox="535 285.5  12 12" xmlns="http://www.w3.org/2000/svg">
  <path d="M 541 285.5  C 544.36 285.5  547 288.14  547 291.5  C 547 294.86  544.36 297.5  541 297.5  C 537.64 297.5  535 294.86  535 291.5  C 535 288.14  537.64 285.5  541 285.5  Z " fill-rule="nonzero" fill="#f0f0f0" stroke="none" />
  <path d="M 541 286  C 544.08 286  546.5 288.42  546.5 291.5  C 546.5 294.58  544.08 297  541 297  C 537.92 297  535.5 294.58  535.5 291.5  C 535.5 288.42  537.92 286  541 286  Z " stroke-width="1" stroke="#797979" fill="none" />
  <path d="M 541 294.5  C 539.32 294.5  538 293.18  538 291.5  C 538 289.82  539.32 288.5  541 288.5  C 542.68 288.5  544 289.82  544 291.5  C 544 293.18  542.68 294.5  541 294.5  " fill-rule="nonzero" fill="#797979" stroke="none" />
</svg>