<?xml version="1.0" encoding="utf-8"?>
<svg version="1.1" xmlns:xlink="http://www.w3.org/1999/xlink" width="12px" height="12px" viewBox="599 424.5  12 12" xmlns="http://www.w3.org/2000/svg">
  <path d="M 605 424.5  C 608.36 424.5  611 427.14  611 430.5  C 611 433.86  608.36 436.5  605 436.5  C 601.64 436.5  599 433.86  599 430.5  C 599 427.14  601.64 424.5  605 424.5  Z " fill-rule="nonzero" fill="#f0f0f0" stroke="none" />
  <path d="M 605 425  C 608.08 425  610.5 427.42  610.5 430.5  C 610.5 433.58  608.08 436  605 436  C 601.92 436  599.5 433.58  599.5 430.5  C 599.5 427.42  601.92 425  605 425  Z " stroke-width="1" stroke="#797979" fill="none" />
  <path d="M 605 433.5  C 603.32 433.5  602 432.18  602 430.5  C 602 428.82  603.32 427.5  605 427.5  C 606.68 427.5  608 428.82  608 430.5  C 608 432.18  606.68 433.5  605 433.5  " fill-rule="nonzero" fill="#797979" stroke="none" />
</svg>