<?xml version="1.0" encoding="utf-8"?>
<svg version="1.1" xmlns:xlink="http://www.w3.org/1999/xlink" width="12px" height="12px" viewBox="599 493.5  12 12" xmlns="http://www.w3.org/2000/svg">
  <path d="M 605 493.5  C 608.36 493.5  611 496.14  611 499.5  C 611 502.86  608.36 505.5  605 505.5  C 601.64 505.5  599 502.86  599 499.5  C 599 496.14  601.64 493.5  605 493.5  Z " fill-rule="nonzero" fill="#f0f0f0" stroke="none" />
  <path d="M 605 494  C 608.08 494  610.5 496.42  610.5 499.5  C 610.5 502.58  608.08 505  605 505  C 601.92 505  599.5 502.58  599.5 499.5  C 599.5 496.42  601.92 494  605 494  Z " stroke-width="1" stroke="#797979" fill="none" />
  <path d="M 605 502.5  C 603.32 502.5  602 501.18  602 499.5  C 602 497.82  603.32 496.5  605 496.5  C 606.68 496.5  608 497.82  608 499.5  C 608 501.18  606.68 502.5  605 502.5  " fill-rule="nonzero" fill="#797979" stroke="none" />
</svg>