<?xml version="1.0" encoding="utf-8"?>
<svg version="1.1" xmlns:xlink="http://www.w3.org/1999/xlink" width="12px" height="12px" viewBox="535 632.5  12 12" xmlns="http://www.w3.org/2000/svg">
  <path d="M 541 632.5  C 544.36 632.5  547 635.14  547 638.5  C 547 641.86  544.36 644.5  541 644.5  C 537.64 644.5  535 641.86  535 638.5  C 535 635.14  537.64 632.5  541 632.5  Z " fill-rule="nonzero" fill="#ffffff" stroke="none" />
  <path d="M 541 633  C 544.08 633  546.5 635.42  546.5 638.5  C 546.5 641.58  544.08 644  541 644  C 537.92 644  535.5 641.58  535.5 638.5  C 535.5 635.42  537.92 633  541 633  Z " stroke-width="1" stroke="#797979" fill="none" />
  <path d="M 541 641.5  C 539.32 641.5  538 640.18  538 638.5  C 538 636.82  539.32 635.5  541 635.5  C 542.68 635.5  544 636.82  544 638.5  C 544 640.18  542.68 641.5  541 641.5  " fill-rule="nonzero" fill="#797979" stroke="none" />
</svg>