<?xml version="1.0" encoding="utf-8"?>
<svg version="1.1" xmlns:xlink="http://www.w3.org/1999/xlink" width="12px" height="12px" viewBox="535 493.5  12 12" xmlns="http://www.w3.org/2000/svg">
  <path d="M 541 493.5  C 544.36 493.5  547 496.14  547 499.5  C 547 502.86  544.36 505.5  541 505.5  C 537.64 505.5  535 502.86  535 499.5  C 535 496.14  537.64 493.5  541 493.5  Z " fill-rule="nonzero" fill="#ffffff" stroke="none" />
  <path d="M 541 494  C 544.08 494  546.5 496.42  546.5 499.5  C 546.5 502.58  544.08 505  541 505  C 537.92 505  535.5 502.58  535.5 499.5  C 535.5 496.42  537.92 494  541 494  Z " stroke-width="1" stroke="#797979" fill="none" />
  <path d="M 541 502.5  C 539.32 502.5  538 501.18  538 499.5  C 538 497.82  539.32 496.5  541 496.5  C 542.68 496.5  544 497.82  544 499.5  C 544 501.18  542.68 502.5  541 502.5  " fill-rule="nonzero" fill="#797979" stroke="none" />
</svg>