<?xml version="1.0" encoding="utf-8"?>
<svg version="1.1" xmlns:xlink="http://www.w3.org/1999/xlink" width="12px" height="12px" viewBox="599 563.5  12 12" xmlns="http://www.w3.org/2000/svg">
  <path d="M 605 563.5  C 608.36 563.5  611 566.14  611 569.5  C 611 572.86  608.36 575.5  605 575.5  C 601.64 575.5  599 572.86  599 569.5  C 599 566.14  601.64 563.5  605 563.5  Z " fill-rule="nonzero" fill="#ffffff" stroke="none" />
  <path d="M 605 564  C 608.08 564  610.5 566.42  610.5 569.5  C 610.5 572.58  608.08 575  605 575  C 601.92 575  599.5 572.58  599.5 569.5  C 599.5 566.42  601.92 564  605 564  Z " stroke-width="1" stroke="#797979" fill="none" />
  <path d="M 605 572.5  C 603.32 572.5  602 571.18  602 569.5  C 602 567.82  603.32 566.5  605 566.5  C 606.68 566.5  608 567.82  608 569.5  C 608 571.18  606.68 572.5  605 572.5  " fill-rule="nonzero" fill="#797979" stroke="none" />
</svg>