<?xml version="1.0" encoding="utf-8"?>
<svg version="1.1" xmlns:xlink="http://www.w3.org/1999/xlink" width="12px" height="12px" viewBox="535 563.5  12 12" xmlns="http://www.w3.org/2000/svg">
  <path d="M 541 563.5  C 544.36 563.5  547 566.14  547 569.5  C 547 572.86  544.36 575.5  541 575.5  C 537.64 575.5  535 572.86  535 569.5  C 535 566.14  537.64 563.5  541 563.5  Z " fill-rule="nonzero" fill="#f0f0f0" stroke="none" />
  <path d="M 541 564  C 544.08 564  546.5 566.42  546.5 569.5  C 546.5 572.58  544.08 575  541 575  C 537.92 575  535.5 572.58  535.5 569.5  C 535.5 566.42  537.92 564  541 564  Z " stroke-width="1" stroke="#797979" fill="none" />
  <path d="M 541 572.5  C 539.32 572.5  538 571.18  538 569.5  C 538 567.82  539.32 566.5  541 566.5  C 542.68 566.5  544 567.82  544 569.5  C 544 571.18  542.68 572.5  541 572.5  " fill-rule="nonzero" fill="#797979" stroke="none" />
</svg>