<?xml version="1.0" encoding="utf-8"?>
<svg version="1.1" xmlns:xlink="http://www.w3.org/1999/xlink" width="12px" height="12px" viewBox="599 632.5  12 12" xmlns="http://www.w3.org/2000/svg">
  <path d="M 605 632.5  C 608.36 632.5  611 635.14  611 638.5  C 611 641.86  608.36 644.5  605 644.5  C 601.64 644.5  599 641.86  599 638.5  C 599 635.14  601.64 632.5  605 632.5  Z " fill-rule="nonzero" fill="#ffffff" stroke="none" />
  <path d="M 605 633  C 608.08 633  610.5 635.42  610.5 638.5  C 610.5 641.58  608.08 644  605 644  C 601.92 644  599.5 641.58  599.5 638.5  C 599.5 635.42  601.92 633  605 633  Z " stroke-width="1" stroke="#797979" fill="none" />
  <path d="M 605 641.5  C 603.32 641.5  602 640.18  602 638.5  C 602 636.82  603.32 635.5  605 635.5  C 606.68 635.5  608 636.82  608 638.5  C 608 640.18  606.68 641.5  605 641.5  " fill-rule="nonzero" fill="#797979" stroke="none" />
</svg>