<?xml version="1.0" encoding="utf-8"?>
<svg version="1.1" xmlns:xlink="http://www.w3.org/1999/xlink" width="50px" height="50px" xmlns="http://www.w3.org/2000/svg">
  <g transform="matrix(1 0 0 1 -755 -179 )">
    <path d="M 755 179  L 805 179  L 805 229  L 755 229  L 755 179  " fill-rule="nonzero" fill="#cccccc" stroke="none" />
    <path d="M 759 183  L 801 183  L 801 225  L 759 225  L 759 183  " fill-rule="nonzero" fill="#ffffff" stroke="none" />
    <path d="M 784.75 194  C 782.65 194  781 192.35  781 190.25  C 781 188.15  782.65 186.5  784.75 186.5  C 786.85 186.5  788.5 188.15  788.5 190.25  C 788.5 192.35  786.85 194  784.75 194  " fill-rule="nonzero" fill="#cccccc" stroke="none" />
    <path d="M 761 224  L 761 202.55  L 770.75 192.8  L 784.4 200.6  L 792.2 198.65  L 800 200.6  L 800 224  L 761 224  " fill-rule="nonzero" fill="#169bd5" stroke="none" />
  </g>
</svg>