<?xml version="1.0" encoding="utf-8"?>
<svg version="1.1" xmlns:xlink="http://www.w3.org/1999/xlink" width="70px" height="70px" xmlns="http://www.w3.org/2000/svg">
  <g transform="matrix(1 0 0 1 -1034 -381 )">
    <path d="M 1034 381  L 1104 381  L 1104 451  L 1034 451  L 1034 381  " fill-rule="nonzero" fill="#cccccc" stroke="none" />
    <path d="M 1039 386  L 1099 386  L 1099 446  L 1039 446  L 1039 386  " fill-rule="nonzero" fill="#ffffff" stroke="none" />
    <path d="M 1075.65 402  C 1072.71 402  1070.4 399.69  1070.4 396.75  C 1070.4 393.81  1072.71 391.5  1075.65 391.5  C 1078.59 391.5  1080.9 393.81  1080.9 396.75  C 1080.9 399.69  1078.59 402  1075.65 402  " fill-rule="nonzero" fill="#cccccc" stroke="none" />
    <path d="M 1041 444  L 1041 413.2  L 1055 399.2  L 1074.6 410.4  L 1085.8 407.6  L 1097 410.4  L 1097 444  L 1041 444  " fill-rule="nonzero" fill="#169bd5" stroke="none" />
  </g>
</svg>