<?xml version="1.0" encoding="utf-8"?>
<svg version="1.1" xmlns:xlink="http://www.w3.org/1999/xlink" width="12px" height="12px" viewBox="659 297.5  12 12" xmlns="http://www.w3.org/2000/svg">
  <path d="M 665 297.5  C 668.36 297.5  671 300.14  671 303.5  C 671 306.86  668.36 309.5  665 309.5  C 661.64 309.5  659 306.86  659 303.5  C 659 300.14  661.64 297.5  665 297.5  Z " fill-rule="nonzero" fill="#ffffff" stroke="none" />
  <path d="M 665 298  C 668.08 298  670.5 300.42  670.5 303.5  C 670.5 306.58  668.08 309  665 309  C 661.92 309  659.5 306.58  659.5 303.5  C 659.5 300.42  661.92 298  665 298  Z " stroke-width="1" stroke="#797979" fill="none" />
  <path d="M 665 306.5  C 663.32 306.5  662 305.18  662 303.5  C 662 301.82  663.32 300.5  665 300.5  C 666.68 300.5  668 301.82  668 303.5  C 668 305.18  666.68 306.5  665 306.5  " fill-rule="nonzero" fill="#797979" stroke="none" />
</svg>