<?xml version="1.0" encoding="utf-8"?>
<svg version="1.1" xmlns:xlink="http://www.w3.org/1999/xlink" width="12px" height="12px" viewBox="786 297.5  12 12" xmlns="http://www.w3.org/2000/svg">
  <path d="M 792 297.5  C 795.36 297.5  798 300.14  798 303.5  C 798 306.86  795.36 309.5  792 309.5  C 788.64 309.5  786 306.86  786 303.5  C 786 300.14  788.64 297.5  792 297.5  Z " fill-rule="nonzero" fill="#f0f0f0" stroke="none" />
  <path d="M 792 298  C 795.08 298  797.5 300.42  797.5 303.5  C 797.5 306.58  795.08 309  792 309  C 788.92 309  786.5 306.58  786.5 303.5  C 786.5 300.42  788.92 298  792 298  Z " stroke-width="1" stroke="#797979" fill="none" />
  <path d="M 792 306.5  C 790.32 306.5  789 305.18  789 303.5  C 789 301.82  790.32 300.5  792 300.5  C 793.68 300.5  795 301.82  795 303.5  C 795 305.18  793.68 306.5  792 306.5  " fill-rule="nonzero" fill="#797979" stroke="none" />
</svg>