<?xml version="1.0" encoding="utf-8"?>
<svg version="1.1" xmlns:xlink="http://www.w3.org/1999/xlink" width="130px" height="130px" xmlns="http://www.w3.org/2000/svg">
  <g transform="matrix(1 0 0 1 -1602 -542 )">
    <path d="M 1602 542  L 1732 542  L 1732 672  L 1602 672  L 1602 542  " fill-rule="nonzero" fill="#cccccc" stroke="none" />
    <path d="M 1611 551  L 1723 551  L 1723 663  L 1611 663  L 1611 551  " fill-rule="nonzero" fill="#ffffff" stroke="none" />
    <path d="M 1679.35 581  C 1673.89 581  1669.6 576.71  1669.6 571.25  C 1669.6 565.79  1673.89 561.5  1679.35 561.5  C 1684.81 561.5  1689.1 565.79  1689.1 571.25  C 1689.1 576.71  1684.81 581  1679.35 581  " fill-rule="nonzero" fill="#cccccc" stroke="none" />
    <path d="M 1615 660  L 1615 602.25  L 1641.25 576  L 1678 597  L 1699 591.75  L 1720 597  L 1720 660  L 1615 660  " fill-rule="nonzero" fill="#169bd5" stroke="none" />
  </g>
</svg>