<?xml version="1.0" encoding="utf-8"?>
<svg version="1.1" xmlns:xlink="http://www.w3.org/1999/xlink" width="42px" height="24px" xmlns="http://www.w3.org/2000/svg">
  <defs>
    <mask fill="white" id="clip5">
      <path d="M 0 19  L 0 5  C 0 2.20000000000005  2.20000000000005 0  5 0  L 37 0  C 39.8 0  42 2.20000000000005  42 5  L 42 19  C 42 21.8  39.8 24  37 24  L 28.782608695652 24  L 5 24  C 2.20000000000005 24  0 21.8  0 19  Z " fill-rule="evenodd" />
    </mask>
  </defs>
  <g transform="matrix(1 0 0 1 -1540 -1319 )">
    <path d="M 0 19  L 0 5  C 0 2.20000000000005  2.20000000000005 0  5 0  L 37 0  C 39.8 0  42 2.20000000000005  42 5  L 42 19  C 42 21.8  39.8 24  37 24  L 28.782608695652 24  L 5 24  C 2.20000000000005 24  0 21.8  0 19  Z " fill-rule="nonzero" fill="#e8f4ff" stroke="none" transform="matrix(1 0 0 1 1540 1319 )" />
    <path d="M 0 19  L 0 5  C 0 2.20000000000005  2.20000000000005 0  5 0  L 37 0  C 39.8 0  42 2.20000000000005  42 5  L 42 19  C 42 21.8  39.8 24  37 24  L 28.782608695652 24  L 5 24  C 2.20000000000005 24  0 21.8  0 19  Z " stroke-width="2" stroke="#dceeff" fill="none" transform="matrix(1 0 0 1 1540 1319 )" mask="url(#clip5)" />
  </g>
</svg>