<?xml version="1.0" encoding="utf-8"?>
<svg version="1.1" xmlns:xlink="http://www.w3.org/1999/xlink" width="12px" height="12px" viewBox="757 540.5  12 12" xmlns="http://www.w3.org/2000/svg">
  <path d="M 763 540.5  C 766.36 540.5  769 543.14  769 546.5  C 769 549.86  766.36 552.5  763 552.5  C 759.64 552.5  757 549.86  757 546.5  C 757 543.14  759.64 540.5  763 540.5  Z " fill-rule="nonzero" fill="#ffffff" stroke="none" />
  <path d="M 763 541  C 766.08 541  768.5 543.42  768.5 546.5  C 768.5 549.58  766.08 552  763 552  C 759.92 552  757.5 549.58  757.5 546.5  C 757.5 543.42  759.92 541  763 541  Z " stroke-width="1" stroke="#797979" fill="none" />
  <path d="M 763 549.5  C 761.32 549.5  760 548.18  760 546.5  C 760 544.82  761.32 543.5  763 543.5  C 764.68 543.5  766 544.82  766 546.5  C 766 548.18  764.68 549.5  763 549.5  " fill-rule="nonzero" fill="#797979" stroke="none" />
</svg>