<?xml version="1.0" encoding="utf-8"?>
<svg version="1.1" xmlns:xlink="http://www.w3.org/1999/xlink" width="12px" height="12px" viewBox="757 572.5  12 12" xmlns="http://www.w3.org/2000/svg">
  <path d="M 763 572.5  C 766.36 572.5  769 575.14  769 578.5  C 769 581.86  766.36 584.5  763 584.5  C 759.64 584.5  757 581.86  757 578.5  C 757 575.14  759.64 572.5  763 572.5  Z " fill-rule="nonzero" fill="#f0f0f0" stroke="none" />
  <path d="M 763 573  C 766.08 573  768.5 575.42  768.5 578.5  C 768.5 581.58  766.08 584  763 584  C 759.92 584  757.5 581.58  757.5 578.5  C 757.5 575.42  759.92 573  763 573  Z " stroke-width="1" stroke="#797979" fill="none" />
  <path d="M 763 581.5  C 761.32 581.5  760 580.18  760 578.5  C 760 576.82  761.32 575.5  763 575.5  C 764.68 575.5  766 576.82  766 578.5  C 766 580.18  764.68 581.5  763 581.5  " fill-rule="nonzero" fill="#797979" stroke="none" />
</svg>