<?xml version="1.0" encoding="utf-8"?>
<svg version="1.1" xmlns:xlink="http://www.w3.org/1999/xlink" width="12px" height="12px" viewBox="857 640.5  12 12" xmlns="http://www.w3.org/2000/svg">
  <path d="M 863 640.5  C 866.36 640.5  869 643.14  869 646.5  C 869 649.86  866.36 652.5  863 652.5  C 859.64 652.5  857 649.86  857 646.5  C 857 643.14  859.64 640.5  863 640.5  Z " fill-rule="nonzero" fill="#ffffff" stroke="none" />
  <path d="M 863 641  C 866.08 641  868.5 643.42  868.5 646.5  C 868.5 649.58  866.08 652  863 652  C 859.92 652  857.5 649.58  857.5 646.5  C 857.5 643.42  859.92 641  863 641  Z " stroke-width="1" stroke="#797979" fill="none" />
  <path d="M 863 649.5  C 861.32 649.5  860 648.18  860 646.5  C 860 644.82  861.32 643.5  863 643.5  C 864.68 643.5  866 644.82  866 646.5  C 866 648.18  864.68 649.5  863 649.5  " fill-rule="nonzero" fill="#797979" stroke="none" />
</svg>