<?xml version="1.0" encoding="utf-8"?>
<svg version="1.1" xmlns:xlink="http://www.w3.org/1999/xlink" width="15px" height="15px" xmlns="http://www.w3.org/2000/svg">
  <g transform="matrix(1 0 0 1 -757 -500 )">
    <path d="M 764.5 500  C 768.7 500  772 503.3  772 507.5  C 772 511.7  768.7 515  764.5 515  C 760.3 515  757 511.7  757 507.5  C 757 503.3  760.3 500  764.5 500  Z " fill-rule="nonzero" fill="#1890ff" stroke="none" fill-opacity="0" />
    <path d="M 764.5 500.5  C 768.42 500.5  771.5 503.58  771.5 507.5  C 771.5 511.42  768.42 514.5  764.5 514.5  C 760.58 514.5  757.5 511.42  757.5 507.5  C 757.5 503.58  760.58 500.5  764.5 500.5  Z " stroke-width="1" stroke="#aaaaaa" fill="none" />
  </g>
</svg>