<?xml version="1.0" encoding="utf-8"?>
<svg version="1.1" xmlns:xlink="http://www.w3.org/1999/xlink" width="12px" height="12px" viewBox="1118 526  12 12" xmlns="http://www.w3.org/2000/svg">
  <path d="M 1124 526  C 1127.36 526  1130 528.64  1130 532  C 1130 535.36  1127.36 538  1124 538  C 1120.64 538  1118 535.36  1118 532  C 1118 528.64  1120.64 526  1124 526  Z " fill-rule="nonzero" fill="#f0f0f0" stroke="none" />
  <path d="M 1124 526.5  C 1127.08 526.5  1129.5 528.92  1129.5 532  C 1129.5 535.08  1127.08 537.5  1124 537.5  C 1120.92 537.5  1118.5 535.08  1118.5 532  C 1118.5 528.92  1120.92 526.5  1124 526.5  Z " stroke-width="1" stroke="#797979" fill="none" />
  <path d="M 1124 535  C 1122.32 535  1121 533.68  1121 532  C 1121 530.32  1122.32 529  1124 529  C 1125.68 529  1127 530.32  1127 532  C 1127 533.68  1125.68 535  1124 535  " fill-rule="nonzero" fill="#797979" stroke="none" />
</svg>