<?xml version="1.0" encoding="utf-8"?>
<svg version="1.1" xmlns:xlink="http://www.w3.org/1999/xlink" width="20px" height="20px" xmlns="http://www.w3.org/2000/svg">
  <g transform="matrix(1 0 0 1 -440 -292 )">
    <path d="M 440 292  L 460 292  L 460 312  L 440 312  L 440 292  " fill-rule="nonzero" fill="#cccccc" stroke="none" />
    <path d="M 441 293  L 459 293  L 459 311  L 441 311  L 441 293  " fill-rule="nonzero" fill="#ffffff" stroke="none" />
    <path d="M 451.9 298  C 451.06 298  450.4 297.34  450.4 296.5  C 450.4 295.66  451.06 295  451.9 295  C 452.74 295  453.4 295.66  453.4 296.5  C 453.4 297.34  452.74 298  451.9 298  " fill-rule="nonzero" fill="#cccccc" stroke="none" />
    <path d="M 442 311  L 442 301.65  L 446.25 297.4  L 452.2 300.8  L 455.6 299.95  L 459 300.8  L 459 311  L 442 311  " fill-rule="nonzero" fill="#169bd5" stroke="none" />
  </g>
</svg>