<?xml version="1.0" encoding="utf-8"?>
<svg version="1.1" xmlns:xlink="http://www.w3.org/1999/xlink" width="95px" height="81px" xmlns="http://www.w3.org/2000/svg">
  <g transform="matrix(1 0 0 1 -440 -328 )">
    <path d="M 440 328  L 535 328  L 535 409  L 440 409  L 440 328  " fill-rule="nonzero" fill="#cccccc" stroke="none" />
    <path d="M 446 334  L 529 334  L 529 403  L 446 403  L 446 334  " fill-rule="nonzero" fill="#ffffff" stroke="none" />
    <path d="M 495.475 352.3  C 492.073 352.3  489.4 349.627  489.4 346.225  C 489.4 342.823  492.073 340.15  495.475 340.15  C 498.877 340.15  501.55 342.823  501.55 346.225  C 501.55 349.627  498.877 352.3  495.475 352.3  " fill-rule="nonzero" fill="#cccccc" stroke="none" />
    <path d="M 448 401  L 448 365.25  L 467.75 349  L 495.4 367.747368421053  L 511.2 358.75  L 527 367.747368421053  L 527 401  L 448 401  " fill-rule="nonzero" fill="#169bd5" stroke="none" />
  </g>
</svg>