<?xml version="1.0" encoding="utf-8"?>
<svg version="1.1" xmlns:xlink="http://www.w3.org/1999/xlink" width="12px" height="12px" viewBox="107 1591  12 12" xmlns="http://www.w3.org/2000/svg">
  <path d="M 113 1591  C 116.36 1591  119 1593.64  119 1597  C 119 1600.36  116.36 1603  113 1603  C 109.64 1603  107 1600.36  107 1597  C 107 1593.64  109.64 1591  113 1591  Z " fill-rule="nonzero" fill="#f0f0f0" stroke="none" />
  <path d="M 113 1591.5  C 116.08 1591.5  118.5 1593.92  118.5 1597  C 118.5 1600.08  116.08 1602.5  113 1602.5  C 109.92 1602.5  107.5 1600.08  107.5 1597  C 107.5 1593.92  109.92 1591.5  113 1591.5  Z " stroke-width="1" stroke="#797979" fill="none" />
  <path d="M 113 1600  C 111.32 1600  110 1598.68  110 1597  C 110 1595.32  111.32 1594  113 1594  C 114.68 1594  116 1595.32  116 1597  C 116 1598.68  114.68 1600  113 1600  " fill-rule="nonzero" fill="#797979" stroke="none" />
</svg>