<?xml version="1.0" encoding="utf-8"?>
<svg version="1.1" xmlns:xlink="http://www.w3.org/1999/xlink" width="30px" height="30px" xmlns="http://www.w3.org/2000/svg">
  <g transform="matrix(1 0 0 1 -858 -244 )">
    <path d="M 858 244  L 888 244  L 888 274  L 858 274  L 858 244  " fill-rule="nonzero" fill="#cccccc" stroke="none" />
    <path d="M 860 246  L 886 246  L 886 272  L 860 272  L 860 246  " fill-rule="nonzero" fill="#ffffff" stroke="none" />
    <path d="M 875.85 253  C 874.59 253  873.6 252.01  873.6 250.75  C 873.6 249.49  874.59 248.5  875.85 248.5  C 877.11 248.5  878.1 249.49  878.1 250.75  C 878.1 252.01  877.11 253  875.85 253  " fill-rule="nonzero" fill="#cccccc" stroke="none" />
    <path d="M 861 271  L 861 257.8  L 867 251.8  L 875.4 256.6  L 880.2 255.4  L 885 256.6  L 885 271  L 861 271  " fill-rule="nonzero" fill="#169bd5" stroke="none" />
  </g>
</svg>