<?xml version="1.0" encoding="utf-8"?>
<svg version="1.1" xmlns:xlink="http://www.w3.org/1999/xlink" width="160px" height="160px" xmlns="http://www.w3.org/2000/svg">
  <g transform="matrix(1 0 0 1 -116 -802 )">
    <path d="M 116 802  L 276 802  L 276 962  L 116 962  L 116 802  " fill-rule="nonzero" fill="#cccccc" stroke="none" />
    <path d="M 127 813  L 265 813  L 265 951  L 127 951  L 127 813  " fill-rule="nonzero" fill="#ffffff" stroke="none" />
    <path d="M 211.2 850  C 204.48 850  199.2 844.72  199.2 838  C 199.2 831.28  204.48 826  211.2 826  C 217.92 826  223.2 831.28  223.2 838  C 223.2 844.72  217.92 850  211.2 850  " fill-rule="nonzero" fill="#cccccc" stroke="none" />
    <path d="M 131 947  L 131 875.5  L 163.5 843  L 209 869  L 235 862.5  L 261 869  L 261 947  L 131 947  " fill-rule="nonzero" fill="#169bd5" stroke="none" />
  </g>
</svg>