<?xml version="1.0" encoding="utf-8"?>
<svg version="1.1" xmlns:xlink="http://www.w3.org/1999/xlink" width="93px" height="85px" xmlns="http://www.w3.org/2000/svg">
  <g transform="matrix(1 0 0 1 -88 -1526 )">
    <path d="M 88 1526  L 181 1526  L 181 1611  L 88 1611  L 88 1526  " fill-rule="nonzero" fill="#cccccc" stroke="none" />
    <path d="M 94 1532  L 175 1532  L 175 1605  L 94 1605  L 94 1532  " fill-rule="nonzero" fill="#ffffff" stroke="none" />
    <path d="M 142.735 1551.5  C 139.165 1551.5  136.36 1548.695  136.36 1545.125  C 136.36 1541.555  139.165 1538.75  142.735 1538.75  C 146.305 1538.75  149.11 1541.555  149.11 1545.125  C 149.11 1548.695  146.305 1551.5  142.735 1551.5  " fill-rule="nonzero" fill="#cccccc" stroke="none" />
    <path d="M 96 1603  L 96 1565.05  L 115.25 1547.8  L 142.2 1565.16129032258  L 157.6 1558.15  L 173 1565.16129032258  L 173 1603  L 96 1603  " fill-rule="nonzero" fill="#169bd5" stroke="none" />
  </g>
</svg>