<?xml version="1.0" encoding="utf-8"?>
<svg version="1.1" xmlns:xlink="http://www.w3.org/1999/xlink" width="50px" height="50px" xmlns="http://www.w3.org/2000/svg">
  <g transform="matrix(1 0 0 1 -1924 -921 )">
    <path d="M 1949 921  C 1963 921  1974 932  1974 946  C 1974 960  1963 971  1949 971  C 1935 971  1924 960  1924 946  C 1924 932  1935 921  1949 921  Z " fill-rule="nonzero" fill="#ffffff" stroke="none" />
    <path d="M 1949 921.5  C 1962.72 921.5  1973.5 932.28  1973.5 946  C 1973.5 959.72  1962.72 970.5  1949 970.5  C 1935.28 970.5  1924.5 959.72  1924.5 946  C 1924.5 932.28  1935.28 921.5  1949 921.5  Z " stroke-width="1" stroke="#797979" fill="none" />
  </g>
</svg>