<?xml version="1.0" encoding="utf-8"?>
<svg version="1.1" xmlns:xlink="http://www.w3.org/1999/xlink" width="12px" height="12px" viewBox="850 465  12 12" xmlns="http://www.w3.org/2000/svg">
  <path d="M 856 465  C 859.36 465  862 467.64  862 471  C 862 474.36  859.36 477  856 477  C 852.64 477  850 474.36  850 471  C 850 467.64  852.64 465  856 465  Z " fill-rule="nonzero" fill="#ffffff" stroke="none" />
  <path d="M 856 465.5  C 859.08 465.5  861.5 467.92  861.5 471  C 861.5 474.08  859.08 476.5  856 476.5  C 852.92 476.5  850.5 474.08  850.5 471  C 850.5 467.92  852.92 465.5  856 465.5  Z " stroke-width="1" stroke="#797979" fill="none" />
  <path d="M 856 474  C 854.32 474  853 472.68  853 471  C 853 469.32  854.32 468  856 468  C 857.68 468  859 469.32  859 471  C 859 472.68  857.68 474  856 474  " fill-rule="nonzero" fill="#797979" stroke="none" />
</svg>