<?xml version="1.0" encoding="utf-8"?>
<svg version="1.1" xmlns:xlink="http://www.w3.org/1999/xlink" width="12px" height="12px" viewBox="857 1112  12 12" xmlns="http://www.w3.org/2000/svg">
  <path d="M 863 1112  C 866.36 1112  869 1114.64  869 1118  C 869 1121.36  866.36 1124  863 1124  C 859.64 1124  857 1121.36  857 1118  C 857 1114.64  859.64 1112  863 1112  Z " fill-rule="nonzero" fill="#f0f0f0" stroke="none" />
  <path d="M 863 1112.5  C 866.08 1112.5  868.5 1114.92  868.5 1118  C 868.5 1121.08  866.08 1123.5  863 1123.5  C 859.92 1123.5  857.5 1121.08  857.5 1118  C 857.5 1114.92  859.92 1112.5  863 1112.5  Z " stroke-width="1" stroke="#797979" fill="none" />
  <path d="M 863 1121  C 861.32 1121  860 1119.68  860 1118  C 860 1116.32  861.32 1115  863 1115  C 864.68 1115  866 1116.32  866 1118  C 866 1119.68  864.68 1121  863 1121  " fill-rule="nonzero" fill="#797979" stroke="none" />
</svg>