<?xml version="1.0" encoding="utf-8"?>
<svg version="1.1" xmlns:xlink="http://www.w3.org/1999/xlink" width="12px" height="12px" viewBox="1474 738  12 12" xmlns="http://www.w3.org/2000/svg">
  <path d="M 1480 738  C 1483.36 738  1486 740.64  1486 744  C 1486 747.36  1483.36 750  1480 750  C 1476.64 750  1474 747.36  1474 744  C 1474 740.64  1476.64 738  1480 738  Z " fill-rule="nonzero" fill="#f0f0f0" stroke="none" />
  <path d="M 1480 738.5  C 1483.08 738.5  1485.5 740.92  1485.5 744  C 1485.5 747.08  1483.08 749.5  1480 749.5  C 1476.92 749.5  1474.5 747.08  1474.5 744  C 1474.5 740.92  1476.92 738.5  1480 738.5  Z " stroke-width="1" stroke="#797979" fill="none" />
  <path d="M 1480 747  C 1478.32 747  1477 745.68  1477 744  C 1477 742.32  1478.32 741  1480 741  C 1481.68 741  1483 742.32  1483 744  C 1483 745.68  1481.68 747  1480 747  " fill-rule="nonzero" fill="#797979" stroke="none" />
</svg>