<?xml version="1.0" encoding="utf-8"?>
<svg version="1.1" xmlns:xlink="http://www.w3.org/1999/xlink" width="12px" height="12px" viewBox="1467 510  12 12" xmlns="http://www.w3.org/2000/svg">
  <path d="M 1473 510  C 1476.36 510  1479 512.64  1479 516  C 1479 519.36  1476.36 522  1473 522  C 1469.64 522  1467 519.36  1467 516  C 1467 512.64  1469.64 510  1473 510  Z " fill-rule="nonzero" fill="#ffffff" stroke="none" />
  <path d="M 1473 510.5  C 1476.08 510.5  1478.5 512.92  1478.5 516  C 1478.5 519.08  1476.08 521.5  1473 521.5  C 1469.92 521.5  1467.5 519.08  1467.5 516  C 1467.5 512.92  1469.92 510.5  1473 510.5  Z " stroke-width="1" stroke="#797979" fill="none" />
  <path d="M 1473 519  C 1471.32 519  1470 517.68  1470 516  C 1470 514.32  1471.32 513  1473 513  C 1474.68 513  1476 514.32  1476 516  C 1476 517.68  1474.68 519  1473 519  " fill-rule="nonzero" fill="#797979" stroke="none" />
</svg>