<?xml version="1.0" encoding="utf-8"?>
<svg version="1.1" xmlns:xlink="http://www.w3.org/1999/xlink" width="12px" height="12px" viewBox="857 632.5  12 12" xmlns="http://www.w3.org/2000/svg">
  <path d="M 863 632.5  C 866.36 632.5  869 635.14  869 638.5  C 869 641.86  866.36 644.5  863 644.5  C 859.64 644.5  857 641.86  857 638.5  C 857 635.14  859.64 632.5  863 632.5  Z " fill-rule="nonzero" fill="#ffffff" stroke="none" />
  <path d="M 863 633  C 866.08 633  868.5 635.42  868.5 638.5  C 868.5 641.58  866.08 644  863 644  C 859.92 644  857.5 641.58  857.5 638.5  C 857.5 635.42  859.92 633  863 633  Z " stroke-width="1" stroke="#797979" fill="none" />
  <path d="M 863 641.5  C 861.32 641.5  860 640.18  860 638.5  C 860 636.82  861.32 635.5  863 635.5  C 864.68 635.5  866 636.82  866 638.5  C 866 640.18  864.68 641.5  863 641.5  " fill-rule="nonzero" fill="#797979" stroke="none" />
</svg>