<?xml version="1.0" encoding="utf-8"?>
<svg version="1.1" xmlns:xlink="http://www.w3.org/1999/xlink" width="70px" height="70px" xmlns="http://www.w3.org/2000/svg">
  <g transform="matrix(1 0 0 1 -16 -685 )">
    <path d="M 16 685  L 86 685  L 86 755  L 16 755  L 16 685  " fill-rule="nonzero" fill="#cccccc" stroke="none" />
    <path d="M 21 690  L 81 690  L 81 750  L 21 750  L 21 690  " fill-rule="nonzero" fill="#ffffff" stroke="none" />
    <path d="M 57.65 706  C 54.71 706  52.4 703.69  52.4 700.75  C 52.4 697.81  54.71 695.5  57.65 695.5  C 60.59 695.5  62.9 697.81  62.9 700.75  C 62.9 703.69  60.59 706  57.65 706  " fill-rule="nonzero" fill="#cccccc" stroke="none" />
    <path d="M 23 748  L 23 717.2  L 37 703.2  L 56.6 714.4  L 67.8 711.6  L 79 714.4  L 79 748  L 23 748  " fill-rule="nonzero" fill="#169bd5" stroke="none" />
  </g>
</svg>