<svg t="1606202806740" class="icon" viewBox="0 0 1024 1024" version="1.1" xmlns="http://www.w3.org/2000/svg" p-id="2759" width="200" height="200"><path d="M512.976896 215.97184c-86.786048 0-157.384704 69.326848-157.384704 154.515456 0 85.170176 70.598656 154.423296 157.384704 154.423296 86.781952 0 157.343744-69.25312 157.343744-154.423296C670.32064 285.294592 599.758848 215.97184 512.976896 215.97184M512.976896 456.493056c-48.244736 0-87.492608-38.592512-87.492608-86.038528 0-47.435776 39.247872-86.044672 87.492608-86.044672 48.211968 0 87.453696 38.608896 87.453696 86.044672C600.430592 417.898496 561.188864 456.493056 512.976896 456.493056M881.332224 393.418752c0-199.493632-165.24288-361.783296-368.355328-361.783296-203.077632 0-368.25088 162.289664-368.25088 361.783296 0 156.459008 226.77504 471.721984 324.329472 599.98208 10.268672 13.533184 26.703872 21.577728 43.923456 21.577728 17.178624 0 33.64864-8.042496 43.956224-21.577728C654.452736 865.140736 881.332224 549.91872 881.332224 393.418752M518.782976 938.641408l-5.80608 7.72096-5.812224-7.72096C323.008512 693.942272 208.523264 485.00736 208.523264 393.418752c0-164.902912 136.5504-299.067392 304.453632-299.067392 167.86432 0 304.420864 134.16448 304.420864 299.067392C817.430528 485.042176 703.014912 693.942272 518.782976 938.641408" p-id="2760"></path></svg>