<?xml version="1.0" encoding="utf-8"?>
<svg version="1.1" xmlns:xlink="http://www.w3.org/1999/xlink" width="40px" height="40px" xmlns="http://www.w3.org/2000/svg">
  <g transform="matrix(1 0 0 1 -468 -219 )">
    <path d="M 468 219  L 508 219  L 508 259  L 468 259  L 468 219  " fill-rule="nonzero" fill="#cccccc" stroke="none" />
    <path d="M 471 222  L 505 222  L 505 256  L 471 256  L 471 222  " fill-rule="nonzero" fill="#ffffff" stroke="none" />
    <path d="M 491.8 231  C 490.12 231  488.8 229.68  488.8 228  C 488.8 226.32  490.12 225  491.8 225  C 493.48 225  494.8 226.32  494.8 228  C 494.8 229.68  493.48 231  491.8 231  " fill-rule="nonzero" fill="#cccccc" stroke="none" />
    <path d="M 472 255  L 472 237.4  L 480 229.4  L 491.2 235.8  L 497.6 234.2  L 504 235.8  L 504 255  L 472 255  " fill-rule="nonzero" fill="#169bd5" stroke="none" />
  </g>
</svg>