<?xml version="1.0" encoding="utf-8"?>
<svg version="1.1" xmlns:xlink="http://www.w3.org/1999/xlink" width="12px" height="12px" viewBox="698 526  12 12" xmlns="http://www.w3.org/2000/svg">
  <path d="M 704 526  C 707.36 526  710 528.64  710 532  C 710 535.36  707.36 538  704 538  C 700.64 538  698 535.36  698 532  C 698 528.64  700.64 526  704 526  Z " fill-rule="nonzero" fill="#ffffff" stroke="none" />
  <path d="M 704 526.5  C 707.08 526.5  709.5 528.92  709.5 532  C 709.5 535.08  707.08 537.5  704 537.5  C 700.92 537.5  698.5 535.08  698.5 532  C 698.5 528.92  700.92 526.5  704 526.5  Z " stroke-width="1" stroke="#797979" fill="none" />
  <path d="M 704 535  C 702.32 535  701 533.68  701 532  C 701 530.32  702.32 529  704 529  C 705.68 529  707 530.32  707 532  C 707 533.68  705.68 535  704 535  " fill-rule="nonzero" fill="#797979" stroke="none" />
</svg>