<?xml version="1.0" encoding="utf-8"?>
<svg version="1.1" xmlns:xlink="http://www.w3.org/1999/xlink" width="58px" height="54px" xmlns="http://www.w3.org/2000/svg">
  <g transform="matrix(1 0 0 1 -694 -242 )">
    <path d="M 694 242  L 752 242  L 752 296  L 694 296  L 694 242  " fill-rule="nonzero" fill="#cccccc" stroke="none" />
    <path d="M 698 246  L 748 246  L 748 292  L 698 292  L 698 246  " fill-rule="nonzero" fill="#ffffff" stroke="none" />
    <path d="M 728.21 258.2  C 725.942 258.2  724.16 256.418  724.16 254.15  C 724.16 251.882  725.942 250.1  728.21 250.1  C 730.478 250.1  732.26 251.882  732.26 254.15  C 732.26 256.418  730.478 258.2  728.21 258.2  " fill-rule="nonzero" fill="#cccccc" stroke="none" />
    <path d="M 700 291  L 700 267.35  L 711.75 256.6  L 728.2 266.979310344828  L 737.6 263.05  L 747 266.979310344828  L 747 291  L 700 291  " fill-rule="nonzero" fill="#169bd5" stroke="none" />
  </g>
</svg>