<?xml version="1.0" encoding="utf-8"?>
<svg version="1.1" xmlns:xlink="http://www.w3.org/1999/xlink" width="130px" height="89px" xmlns="http://www.w3.org/2000/svg">
  <g transform="matrix(1 0 0 1 -35 -816 )">
    <path d="M 35 816  L 165 816  L 165 905  L 35 905  L 35 816  " fill-rule="nonzero" fill="#cccccc" stroke="none" />
    <path d="M 41 822  L 159 822  L 159 899  L 41 899  L 41 822  " fill-rule="nonzero" fill="#ffffff" stroke="none" />
    <path d="M 109.275 842.7  C 105.537 842.7  102.6 839.763  102.6 836.025  C 102.6 832.287  105.537 829.35  109.275 829.35  C 113.013 829.35  115.95 832.287  115.95 836.025  C 115.95 839.763  113.013 842.7  109.275 842.7  " fill-rule="nonzero" fill="#cccccc" stroke="none" />
    <path d="M 43 897  L 43 856.85  L 71.5 838.6  L 111.4 867.013846153846  L 134.2 849.55  L 157 867.013846153846  L 157 897  L 43 897  " fill-rule="nonzero" fill="#169bd5" stroke="none" />
  </g>
</svg>