<?xml version="1.0" encoding="utf-8"?>
<svg version="1.1" xmlns:xlink="http://www.w3.org/1999/xlink" width="40px" height="40px" xmlns="http://www.w3.org/2000/svg">
  <defs>
    <mask fill="white" id="clip1">
      <path d="M 498 881  C 486.9 881  478 872.1  478 861  L 478 861  C 478 849.9  486.9 841  498 841  L 498 841  C 509.1 841  518 849.9  518 861  L 518 861  C 518 872.1  509.1 881  498 881  " fill-rule="evenodd" />
    </mask>
  </defs>
  <g transform="matrix(1 0 0 1 -478 -841 )">
    <path d="M 478 841  L 518 841  L 518 881  L 478 881  L 478 841  " fill-rule="nonzero" fill="#cccccc" stroke="none" mask="url(#clip1)" />
    <path d="M 481 844  L 515 844  L 515 878  L 481 878  L 481 844  " fill-rule="nonzero" fill="#ffffff" stroke="none" mask="url(#clip1)" />
    <path d="M 501.8 853  C 500.12 853  498.8 851.68  498.8 850  C 498.8 848.32  500.12 847  501.8 847  C 503.48 847  504.8 848.32  504.8 850  C 504.8 851.68  503.48 853  501.8 853  " fill-rule="nonzero" fill="#cccccc" stroke="none" mask="url(#clip1)" />
    <path d="M 482 877  L 482 859.4  L 490 851.4  L 501.2 857.8  L 507.6 856.2  L 514 857.8  L 514 877  L 482 877  " fill-rule="nonzero" fill="#169bd5" stroke="none" mask="url(#clip1)" />
  </g>
</svg>