<?xml version="1.0" encoding="utf-8"?>
<svg version="1.1" xmlns:xlink="http://www.w3.org/1999/xlink" width="105px" height="60px" xmlns="http://www.w3.org/2000/svg">
  <defs>
    <mask fill="white" id="clip28">
      <path d="M 72.6923076923077 60  L 0 59.9999999999939  L 0 0  L 72.6923076923077 0  C 90.7846153846154 0  105 13.2000000000003  105 30  C 105 46.7999999999997  90.7846153846154 60  72.6923076923077 60  Z " fill-rule="evenodd" />
    </mask>
  </defs>
  <g transform="matrix(1 0 0 1 -353 -793 )">
    <path d="M 72.6923076923077 60  L 0 59.9999999999939  L 0 0  L 72.6923076923077 0  C 90.7846153846154 0  105 13.2000000000003  105 30  C 105 46.7999999999997  90.7846153846154 60  72.6923076923077 60  Z " fill-rule="nonzero" fill="#ffffff" stroke="none" transform="matrix(1 0 0 1 353 793 )" />
    <path d="M 72.6923076923077 60  L 0 59.9999999999939  L 0 0  L 72.6923076923077 0  C 90.7846153846154 0  105 13.2000000000003  105 30  C 105 46.7999999999997  90.7846153846154 60  72.6923076923077 60  Z " stroke-width="2" stroke="#797979" fill="none" transform="matrix(1 0 0 1 353 793 )" mask="url(#clip28)" />
  </g>
</svg>