<?xml version="1.0" encoding="utf-8"?>
<svg version="1.1" xmlns:xlink="http://www.w3.org/1999/xlink" width="120px" height="120px" xmlns="http://www.w3.org/2000/svg">
  <g transform="matrix(1 0 0 1 -1325 -507 )">
    <path d="M 1325 507  L 1445 507  L 1445 627  L 1325 627  L 1325 507  " fill-rule="nonzero" fill="#cccccc" stroke="none" />
    <path d="M 1333 515  L 1437 515  L 1437 619  L 1333 619  L 1333 515  " fill-rule="nonzero" fill="#ffffff" stroke="none" />
    <path d="M 1396.4 543  C 1391.36 543  1387.4 539.04  1387.4 534  C 1387.4 528.96  1391.36 525  1396.4 525  C 1401.44 525  1405.4 528.96  1405.4 534  C 1405.4 539.04  1401.44 543  1396.4 543  " fill-rule="nonzero" fill="#cccccc" stroke="none" />
    <path d="M 1336 616  L 1336 562.1  L 1360.5 537.6  L 1394.8 557.2  L 1414.4 552.3  L 1434 557.2  L 1434 616  L 1336 616  " fill-rule="nonzero" fill="#169bd5" stroke="none" />
  </g>
</svg>