<?xml version="1.0" encoding="utf-8"?>
<svg version="1.1" xmlns:xlink="http://www.w3.org/1999/xlink" width="12px" height="12px" viewBox="510 595.5  12 12" xmlns="http://www.w3.org/2000/svg">
  <path d="M 516 595.5  C 519.36 595.5  522 598.14  522 601.5  C 522 604.86  519.36 607.5  516 607.5  C 512.64 607.5  510 604.86  510 601.5  C 510 598.14  512.64 595.5  516 595.5  Z " fill-rule="nonzero" fill="#f0f0f0" stroke="none" />
  <path d="M 516 596  C 519.08 596  521.5 598.42  521.5 601.5  C 521.5 604.58  519.08 607  516 607  C 512.92 607  510.5 604.58  510.5 601.5  C 510.5 598.42  512.92 596  516 596  Z " stroke-width="1" stroke="#797979" fill="none" />
  <path d="M 516 604.5  C 514.32 604.5  513 603.18  513 601.5  C 513 599.82  514.32 598.5  516 598.5  C 517.68 598.5  519 599.82  519 601.5  C 519 603.18  517.68 604.5  516 604.5  " fill-rule="nonzero" fill="#797979" stroke="none" />
</svg>