<?xml version="1.0" encoding="utf-8"?>
<svg version="1.1" xmlns:xlink="http://www.w3.org/1999/xlink" width="12px" height="12px" viewBox="383 595.5  12 12" xmlns="http://www.w3.org/2000/svg">
  <path d="M 389 595.5  C 392.36 595.5  395 598.14  395 601.5  C 395 604.86  392.36 607.5  389 607.5  C 385.64 607.5  383 604.86  383 601.5  C 383 598.14  385.64 595.5  389 595.5  Z " fill-rule="nonzero" fill="#f0f0f0" stroke="none" />
  <path d="M 389 596  C 392.08 596  394.5 598.42  394.5 601.5  C 394.5 604.58  392.08 607  389 607  C 385.92 607  383.5 604.58  383.5 601.5  C 383.5 598.42  385.92 596  389 596  Z " stroke-width="1" stroke="#797979" fill="none" />
  <path d="M 389 604.5  C 387.32 604.5  386 603.18  386 601.5  C 386 599.82  387.32 598.5  389 598.5  C 390.68 598.5  392 599.82  392 601.5  C 392 603.18  390.68 604.5  389 604.5  " fill-rule="nonzero" fill="#797979" stroke="none" />
</svg>