<?xml version="1.0" encoding="utf-8"?>
<svg version="1.1" xmlns:xlink="http://www.w3.org/1999/xlink" width="12px" height="12px" viewBox="426 1020  12 12" xmlns="http://www.w3.org/2000/svg">
  <path d="M 432 1020  C 435.36 1020  438 1022.64  438 1026  C 438 1029.36  435.36 1032  432 1032  C 428.64 1032  426 1029.36  426 1026  C 426 1022.64  428.64 1020  432 1020  Z " fill-rule="nonzero" fill="#ffffff" stroke="none" />
  <path d="M 432 1020.5  C 435.08 1020.5  437.5 1022.92  437.5 1026  C 437.5 1029.08  435.08 1031.5  432 1031.5  C 428.92 1031.5  426.5 1029.08  426.5 1026  C 426.5 1022.92  428.92 1020.5  432 1020.5  Z " stroke-width="1" stroke="#797979" fill="none" />
  <path d="M 432 1029  C 430.32 1029  429 1027.68  429 1026  C 429 1024.32  430.32 1023  432 1023  C 433.68 1023  435 1024.32  435 1026  C 435 1027.68  433.68 1029  432 1029  " fill-rule="nonzero" fill="#797979" stroke="none" />
</svg>