<?xml version="1.0" encoding="utf-8"?>
<svg version="1.1" xmlns:xlink="http://www.w3.org/1999/xlink" width="12px" height="12px" viewBox="526 1020  12 12" xmlns="http://www.w3.org/2000/svg">
  <path d="M 532 1020  C 535.36 1020  538 1022.64  538 1026  C 538 1029.36  535.36 1032  532 1032  C 528.64 1032  526 1029.36  526 1026  C 526 1022.64  528.64 1020  532 1020  Z " fill-rule="nonzero" fill="#ffffff" stroke="none" />
  <path d="M 532 1020.5  C 535.08 1020.5  537.5 1022.92  537.5 1026  C 537.5 1029.08  535.08 1031.5  532 1031.5  C 528.92 1031.5  526.5 1029.08  526.5 1026  C 526.5 1022.92  528.92 1020.5  532 1020.5  Z " stroke-width="1" stroke="#797979" fill="none" />
  <path d="M 532 1029  C 530.32 1029  529 1027.68  529 1026  C 529 1024.32  530.32 1023  532 1023  C 533.68 1023  535 1024.32  535 1026  C 535 1027.68  533.68 1029  532 1029  " fill-rule="nonzero" fill="#797979" stroke="none" />
</svg>