<?xml version="1.0" encoding="utf-8"?>
<svg version="1.1" xmlns:xlink="http://www.w3.org/1999/xlink" width="12px" height="12px" viewBox="626 1020  12 12" xmlns="http://www.w3.org/2000/svg">
  <path d="M 632 1020  C 635.36 1020  638 1022.64  638 1026  C 638 1029.36  635.36 1032  632 1032  C 628.64 1032  626 1029.36  626 1026  C 626 1022.64  628.64 1020  632 1020  Z " fill-rule="nonzero" fill="#f0f0f0" stroke="none" />
  <path d="M 632 1020.5  C 635.08 1020.5  637.5 1022.92  637.5 1026  C 637.5 1029.08  635.08 1031.5  632 1031.5  C 628.92 1031.5  626.5 1029.08  626.5 1026  C 626.5 1022.92  628.92 1020.5  632 1020.5  Z " stroke-width="1" stroke="#797979" fill="none" />
  <path d="M 632 1029  C 630.32 1029  629 1027.68  629 1026  C 629 1024.32  630.32 1023  632 1023  C 633.68 1023  635 1024.32  635 1026  C 635 1027.68  633.68 1029  632 1029  " fill-rule="nonzero" fill="#797979" stroke="none" />
</svg>