<?xml version="1.0" encoding="utf-8"?>
<svg version="1.1" xmlns:xlink="http://www.w3.org/1999/xlink" width="338px" height="337px" xmlns="http://www.w3.org/2000/svg">
  <g transform="matrix(1 0 0 1 -28 -189 )">
    <path d="M 28 189  L 366 189  L 366 526  L 28 526  L 28 189  " fill-rule="nonzero" fill="#cccccc" stroke="none" />
    <path d="M 52 213  L 342 213  L 342 502  L 52 502  L 52 213  " fill-rule="nonzero" fill="#ffffff" stroke="none" />
    <path d="M 229.035 290.1  C 214.881 290.1  203.76 278.979  203.76 264.825  C 203.76 250.671  214.881 239.55  229.035 239.55  C 243.189 239.55  254.31 250.671  254.31 264.825  C 254.31 278.979  243.189 290.1  229.035 290.1  " fill-rule="nonzero" fill="#cccccc" stroke="none" />
    <path d="M 61 494  L 61 344.4  L 129.25 276.4  L 224.8 331.282840236686  L 279.4 317.2  L 334 331.282840236686  L 334 494  L 61 494  " fill-rule="nonzero" fill="#169bd5" stroke="none" />
  </g>
</svg>