<?xml version="1.0" encoding="utf-8"?>
<svg version="1.1" xmlns:xlink="http://www.w3.org/1999/xlink" width="100px" height="100px" xmlns="http://www.w3.org/2000/svg">
  <g transform="matrix(1 0 0 1 -251 -539 )">
    <path d="M 301 539  C 329 539  351 561  351 589  C 351 617  329 639  301 639  C 273 639  251 617  251 589  C 251 561  273 539  301 539  Z " fill-rule="nonzero" fill="#ffffff" stroke="none" />
    <path d="M 301 539.5  C 328.72 539.5  350.5 561.28  350.5 589  C 350.5 616.72  328.72 638.5  301 638.5  C 273.28 638.5  251.5 616.72  251.5 589  C 251.5 561.28  273.28 539.5  301 539.5  Z " stroke-width="1" stroke="#797979" fill="none" />
  </g>
</svg>