<?xml version="1.0" encoding="utf-8"?>
<svg version="1.1" xmlns:xlink="http://www.w3.org/1999/xlink" width="26px" height="26px" xmlns="http://www.w3.org/2000/svg">
  <defs>
    <mask fill="white" id="clip4">
      <path d="M 56 183  C 48.785 183  43 177.215  43 170  L 43 170  C 43 162.785  48.785 157  56 157  L 56 157  C 63.215 157  69 162.785  69 170  L 69 170  C 69 177.215  63.215 183  56 183  " fill-rule="evenodd" />
    </mask>
  </defs>
  <g transform="matrix(1 0 0 1 -43 -157 )">
    <path d="M 43 157  L 69 157  L 69 183  L 43 183  L 43 157  " fill-rule="nonzero" fill="#cccccc" stroke="none" mask="url(#clip4)" />
    <path d="M 45 159  L 67 159  L 67 181  L 45 181  L 45 159  " fill-rule="nonzero" fill="#ffffff" stroke="none" mask="url(#clip4)" />
    <path d="M 58.47 164.8  C 57.378 164.8  56.52 163.942  56.52 162.85  C 56.52 161.758  57.378 160.9  58.47 160.9  C 59.562 160.9  60.42 161.758  60.42 162.85  C 60.42 163.942  59.562 164.8  58.47 164.8  " fill-rule="nonzero" fill="#cccccc" stroke="none" mask="url(#clip4)" />
    <path d="M 46 181  L 46 169.45  L 51.25 164.2  L 58.6 168.4  L 62.8 167.35  L 67 168.4  L 67 181  L 46 181  " fill-rule="nonzero" fill="#169bd5" stroke="none" mask="url(#clip4)" />
  </g>
</svg>