<?xml version="1.0" encoding="utf-8"?>
<svg version="1.1" xmlns:xlink="http://www.w3.org/1999/xlink" width="340px" height="32px" xmlns="http://www.w3.org/2000/svg">
  <defs>
    <mask fill="white" id="clip3">
      <path d="M 340 24  L 29.9290918237338 24  L 23.9627659574468 32  L 17.9947130965807 24  L 0 24  L 0 0  L 340 0  L 340 24  Z " fill-rule="evenodd" />
    </mask>
  </defs>
  <g transform="matrix(1 0 0 1 -614 -192 )">
    <path d="M 340 24  L 29.9290918237338 24  L 23.9627659574468 32  L 17.9947130965807 24  L 0 24  L 0 0  L 340 0  L 340 24  Z " fill-rule="nonzero" fill="#ffffff" stroke="none" transform="matrix(1 0 0 1 614 192 )" />
    <path d="M 340 24  L 29.9290918237338 24  L 23.9627659574468 32  L 17.9947130965807 24  L 0 24  L 0 0  L 340 0  L 340 24  Z " stroke-width="2" stroke="#797979" fill="none" transform="matrix(1 0 0 1 614 192 )" mask="url(#clip3)" />
  </g>
</svg>