<?xml version="1.0" encoding="utf-8"?>
<svg version="1.1" xmlns:xlink="http://www.w3.org/1999/xlink" width="12px" height="12px" viewBox="267 1048  12 12" xmlns="http://www.w3.org/2000/svg">
  <path d="M 273 1048  C 276.36 1048  279 1050.64  279 1054  C 279 1057.36  276.36 1060  273 1060  C 269.64 1060  267 1057.36  267 1054  C 267 1050.64  269.64 1048  273 1048  Z " fill-rule="nonzero" fill="#ffffff" stroke="none" />
  <path d="M 273 1048.5  C 276.08 1048.5  278.5 1050.92  278.5 1054  C 278.5 1057.08  276.08 1059.5  273 1059.5  C 269.92 1059.5  267.5 1057.08  267.5 1054  C 267.5 1050.92  269.92 1048.5  273 1048.5  Z " stroke-width="1" stroke="#797979" fill="none" />
  <path d="M 273 1057  C 271.32 1057  270 1055.68  270 1054  C 270 1052.32  271.32 1051  273 1051  C 274.68 1051  276 1052.32  276 1054  C 276 1055.68  274.68 1057  273 1057  " fill-rule="nonzero" fill="#797979" stroke="none" />
</svg>