<?xml version="1.0" encoding="utf-8"?>
<svg version="1.1" xmlns:xlink="http://www.w3.org/1999/xlink" width="12px" height="12px" viewBox="167 1048  12 12" xmlns="http://www.w3.org/2000/svg">
  <path d="M 173 1048  C 176.36 1048  179 1050.64  179 1054  C 179 1057.36  176.36 1060  173 1060  C 169.64 1060  167 1057.36  167 1054  C 167 1050.64  169.64 1048  173 1048  Z " fill-rule="nonzero" fill="#ffffff" stroke="none" />
  <path d="M 173 1048.5  C 176.08 1048.5  178.5 1050.92  178.5 1054  C 178.5 1057.08  176.08 1059.5  173 1059.5  C 169.92 1059.5  167.5 1057.08  167.5 1054  C 167.5 1050.92  169.92 1048.5  173 1048.5  Z " stroke-width="1" stroke="#797979" fill="none" />
  <path d="M 173 1057  C 171.32 1057  170 1055.68  170 1054  C 170 1052.32  171.32 1051  173 1051  C 174.68 1051  176 1052.32  176 1054  C 176 1055.68  174.68 1057  173 1057  " fill-rule="nonzero" fill="#797979" stroke="none" />
</svg>