<?xml version="1.0" encoding="utf-8"?>
<svg version="1.1" xmlns:xlink="http://www.w3.org/1999/xlink" width="12px" height="12px" viewBox="926 1060  12 12" xmlns="http://www.w3.org/2000/svg">
  <path d="M 932 1060  C 935.36 1060  938 1062.64  938 1066  C 938 1069.36  935.36 1072  932 1072  C 928.64 1072  926 1069.36  926 1066  C 926 1062.64  928.64 1060  932 1060  Z " fill-rule="nonzero" fill="#f0f0f0" stroke="none" />
  <path d="M 932 1060.5  C 935.08 1060.5  937.5 1062.92  937.5 1066  C 937.5 1069.08  935.08 1071.5  932 1071.5  C 928.92 1071.5  926.5 1069.08  926.5 1066  C 926.5 1062.92  928.92 1060.5  932 1060.5  Z " stroke-width="1" stroke="#797979" fill="none" />
  <path d="M 932 1069  C 930.32 1069  929 1067.68  929 1066  C 929 1064.32  930.32 1063  932 1063  C 933.68 1063  935 1064.32  935 1066  C 935 1067.68  933.68 1069  932 1069  " fill-rule="nonzero" fill="#797979" stroke="none" />
</svg>