<?xml version="1.0" encoding="utf-8"?>
<svg version="1.1" xmlns:xlink="http://www.w3.org/1999/xlink" width="12px" height="12px" viewBox="1026 1060  12 12" xmlns="http://www.w3.org/2000/svg">
  <path d="M 1032 1060  C 1035.36 1060  1038 1062.64  1038 1066  C 1038 1069.36  1035.36 1072  1032 1072  C 1028.64 1072  1026 1069.36  1026 1066  C 1026 1062.64  1028.64 1060  1032 1060  Z " fill-rule="nonzero" fill="#ffffff" stroke="none" />
  <path d="M 1032 1060.5  C 1035.08 1060.5  1037.5 1062.92  1037.5 1066  C 1037.5 1069.08  1035.08 1071.5  1032 1071.5  C 1028.92 1071.5  1026.5 1069.08  1026.5 1066  C 1026.5 1062.92  1028.92 1060.5  1032 1060.5  Z " stroke-width="1" stroke="#797979" fill="none" />
  <path d="M 1032 1069  C 1030.32 1069  1029 1067.68  1029 1066  C 1029 1064.32  1030.32 1063  1032 1063  C 1033.68 1063  1035 1064.32  1035 1066  C 1035 1067.68  1033.68 1069  1032 1069  " fill-rule="nonzero" fill="#797979" stroke="none" />
</svg>