<?xml version="1.0" encoding="utf-8"?>
<svg version="1.1" xmlns:xlink="http://www.w3.org/1999/xlink" width="12px" height="12px" viewBox="122 1620  12 12" xmlns="http://www.w3.org/2000/svg">
  <path d="M 128 1620  C 131.36 1620  134 1622.64  134 1626  C 134 1629.36  131.36 1632  128 1632  C 124.64 1632  122 1629.36  122 1626  C 122 1622.64  124.64 1620  128 1620  Z " fill-rule="nonzero" fill="#ffffff" stroke="none" />
  <path d="M 128 1620.5  C 131.08 1620.5  133.5 1622.92  133.5 1626  C 133.5 1629.08  131.08 1631.5  128 1631.5  C 124.92 1631.5  122.5 1629.08  122.5 1626  C 122.5 1622.92  124.92 1620.5  128 1620.5  Z " stroke-width="1" stroke="#797979" fill="none" />
  <path d="M 128 1629  C 126.32 1629  125 1627.68  125 1626  C 125 1624.32  126.32 1623  128 1623  C 129.68 1623  131 1624.32  131 1626  C 131 1627.68  129.68 1629  128 1629  " fill-rule="nonzero" fill="#797979" stroke="none" />
</svg>