<?xml version="1.0" encoding="utf-8"?>
<svg version="1.1" xmlns:xlink="http://www.w3.org/1999/xlink" width="12px" height="12px" viewBox="241 1619  12 12" xmlns="http://www.w3.org/2000/svg">
  <path d="M 247 1619  C 250.36 1619  253 1621.64  253 1625  C 253 1628.36  250.36 1631  247 1631  C 243.64 1631  241 1628.36  241 1625  C 241 1621.64  243.64 1619  247 1619  Z " fill-rule="nonzero" fill="#ffffff" stroke="none" />
  <path d="M 247 1619.5  C 250.08 1619.5  252.5 1621.92  252.5 1625  C 252.5 1628.08  250.08 1630.5  247 1630.5  C 243.92 1630.5  241.5 1628.08  241.5 1625  C 241.5 1621.92  243.92 1619.5  247 1619.5  Z " stroke-width="1" stroke="#797979" fill="none" />
  <path d="M 247 1628  C 245.32 1628  244 1626.68  244 1625  C 244 1623.32  245.32 1622  247 1622  C 248.68 1622  250 1623.32  250 1625  C 250 1626.68  248.68 1628  247 1628  " fill-rule="nonzero" fill="#797979" stroke="none" />
</svg>