<?xml version="1.0" encoding="utf-8"?>
<svg version="1.1" xmlns:xlink="http://www.w3.org/1999/xlink" width="12px" height="12px" viewBox="167 1097  12 12" xmlns="http://www.w3.org/2000/svg">
  <path d="M 173 1097  C 176.36 1097  179 1099.64  179 1103  C 179 1106.36  176.36 1109  173 1109  C 169.64 1109  167 1106.36  167 1103  C 167 1099.64  169.64 1097  173 1097  Z " fill-rule="nonzero" fill="#ffffff" stroke="none" />
  <path d="M 173 1097.5  C 176.08 1097.5  178.5 1099.92  178.5 1103  C 178.5 1106.08  176.08 1108.5  173 1108.5  C 169.92 1108.5  167.5 1106.08  167.5 1103  C 167.5 1099.92  169.92 1097.5  173 1097.5  Z " stroke-width="1" stroke="#797979" fill="none" />
  <path d="M 173 1106  C 171.32 1106  170 1104.68  170 1103  C 170 1101.32  171.32 1100  173 1100  C 174.68 1100  176 1101.32  176 1103  C 176 1104.68  174.68 1106  173 1106  " fill-rule="nonzero" fill="#797979" stroke="none" />
</svg>