<?xml version="1.0" encoding="utf-8"?>
<svg version="1.1" xmlns:xlink="http://www.w3.org/1999/xlink" width="12px" height="12px" viewBox="267 1097  12 12" xmlns="http://www.w3.org/2000/svg">
  <path d="M 273 1097  C 276.36 1097  279 1099.64  279 1103  C 279 1106.36  276.36 1109  273 1109  C 269.64 1109  267 1106.36  267 1103  C 267 1099.64  269.64 1097  273 1097  Z " fill-rule="nonzero" fill="#ffffff" stroke="none" />
  <path d="M 273 1097.5  C 276.08 1097.5  278.5 1099.92  278.5 1103  C 278.5 1106.08  276.08 1108.5  273 1108.5  C 269.92 1108.5  267.5 1106.08  267.5 1103  C 267.5 1099.92  269.92 1097.5  273 1097.5  Z " stroke-width="1" stroke="#797979" fill="none" />
  <path d="M 273 1106  C 271.32 1106  270 1104.68  270 1103  C 270 1101.32  271.32 1100  273 1100  C 274.68 1100  276 1101.32  276 1103  C 276 1104.68  274.68 1106  273 1106  " fill-rule="nonzero" fill="#797979" stroke="none" />
</svg>