<?xml version="1.0" encoding="utf-8"?>
<svg version="1.1" xmlns:xlink="http://www.w3.org/1999/xlink" width="192px" height="324px" xmlns="http://www.w3.org/2000/svg">
  <g transform="matrix(1 0 0 1 -914 -238 )">
    <path d="M 914 238  L 1106 238  L 1106 562  L 914 562  L 914 238  " fill-rule="nonzero" fill="#cccccc" stroke="none" />
    <path d="M 927 251  L 1093 251  L 1093 549  L 927 549  L 927 251  " fill-rule="nonzero" fill="#ffffff" stroke="none" />
    <path d="M 1028.24 315.4  C 1020.176 315.4  1013.84 309.064  1013.84 301  C 1013.84 292.936  1020.176 286.6  1028.24 286.6  C 1036.304 286.6  1042.64 292.936  1042.64 301  C 1042.64 309.064  1036.304 315.4  1028.24 315.4  " fill-rule="nonzero" fill="#cccccc" stroke="none" />
    <path d="M 932 544  L 932 385.6  L 971 313.6  L 1025.6 371.2  L 1056.8 356.8  L 1088 371.2  L 1088 544  L 932 544  " fill-rule="nonzero" fill="#169bd5" stroke="none" />
  </g>
</svg>