<?xml version="1.0" encoding="utf-8"?>
<svg version="1.1" xmlns:xlink="http://www.w3.org/1999/xlink" width="40px" height="40px" xmlns="http://www.w3.org/2000/svg">
  <defs>
    <mask fill="white" id="clip35">
      <path d="M 630 254  C 618.9 254  610 245.1  610 234  L 610 234  C 610 222.9  618.9 214  630 214  L 630 214  C 641.1 214  650 222.9  650 234  L 650 234  C 650 245.1  641.1 254  630 254  " fill-rule="evenodd" />
    </mask>
  </defs>
  <g transform="matrix(1 0 0 1 -610 -214 )">
    <path d="M 610 214  L 650 214  L 650 254  L 610 254  L 610 214  " fill-rule="nonzero" fill="#cccccc" stroke="none" mask="url(#clip35)" />
    <path d="M 613 217  L 647 217  L 647 251  L 613 251  L 613 217  " fill-rule="nonzero" fill="#ffffff" stroke="none" mask="url(#clip35)" />
    <path d="M 633.8 226  C 632.12 226  630.8 224.68  630.8 223  C 630.8 221.32  632.12 220  633.8 220  C 635.48 220  636.8 221.32  636.8 223  C 636.8 224.68  635.48 226  633.8 226  " fill-rule="nonzero" fill="#cccccc" stroke="none" mask="url(#clip35)" />
    <path d="M 614 250  L 614 232.4  L 622 224.4  L 633.2 230.8  L 639.6 229.2  L 646 230.8  L 646 250  L 614 250  " fill-rule="nonzero" fill="#169bd5" stroke="none" mask="url(#clip35)" />
  </g>
</svg>