<?xml version="1.0" encoding="utf-8"?>
<svg version="1.1" xmlns:xlink="http://www.w3.org/1999/xlink" width="45px" height="24px" xmlns="http://www.w3.org/2000/svg">
  <defs>
    <mask fill="white" id="clip6">
      <path d="M 0 19  L 0 5  C 0 2.20000000000005  2.20000000000005 0  5 0  L 24 0  L 40 0  C 42.8 0  45 2.20000000000005  45 5  L 45 19  C 45 21.8  42.8 24  40 24  L 5 24  C 2.20000000000005 24  0 21.8  0 19  Z " fill-rule="evenodd" />
    </mask>
  </defs>
  <g transform="matrix(1 0 0 1 -1469 -439 )">
    <path d="M 0 19  L 0 5  C 0 2.20000000000005  2.20000000000005 0  5 0  L 24 0  L 40 0  C 42.8 0  45 2.20000000000005  45 5  L 45 19  C 45 21.8  42.8 24  40 24  L 5 24  C 2.20000000000005 24  0 21.8  0 19  Z " fill-rule="nonzero" fill="#f4f4f5" stroke="none" transform="matrix(1 0 0 1 1469 439 )" />
    <path d="M 0 19  L 0 5  C 0 2.20000000000005  2.20000000000005 0  5 0  L 24 0  L 40 0  C 42.8 0  45 2.20000000000005  45 5  L 45 19  C 45 21.8  42.8 24  40 24  L 5 24  C 2.20000000000005 24  0 21.8  0 19  Z " stroke-width="2" stroke="#dceeff" fill="none" transform="matrix(1 0 0 1 1469 439 )" mask="url(#clip6)" />
  </g>
</svg>