<?xml version="1.0" encoding="utf-8"?>
<svg version="1.1" xmlns:xlink="http://www.w3.org/1999/xlink" width="46px" height="44px" xmlns="http://www.w3.org/2000/svg">
  <g transform="matrix(1 0 0 1 -322 -110 )">
    <path d="M 345 110  C 357.88 110  368 119.68  368 132  C 368 144.32  357.88 154  345 154  C 332.12 154  322 144.32  322 132  C 322 119.68  332.12 110  345 110  Z " fill-rule="nonzero" fill="#ffffff" stroke="none" />
    <path d="M 345 110.5  C 357.6 110.5  367.5 119.96  367.5 132  C 367.5 144.04  357.6 153.5  345 153.5  C 332.4 153.5  322.5 144.04  322.5 132  C 322.5 119.96  332.4 110.5  345 110.5  Z " stroke-width="1" stroke="#797979" fill="none" />
  </g>
</svg>