<?xml version="1.0" encoding="utf-8"?>
<svg version="1.1" xmlns:xlink="http://www.w3.org/1999/xlink" width="50px" height="50px" xmlns="http://www.w3.org/2000/svg">
  <defs>
    <mask fill="white" id="clip3">
      <path d="M 964 408  C 950.125 408  939 396.875  939 383  L 939 383  C 939 369.125  950.125 358  964 358  L 964 358  C 977.875 358  989 369.125  989 383  L 989 383  C 989 396.875  977.875 408  964 408  " fill-rule="evenodd" />
    </mask>
  </defs>
  <g transform="matrix(1 0 0 1 -939 -358 )">
    <path d="M 939 358  L 989 358  L 989 408  L 939 408  L 939 358  " fill-rule="nonzero" fill="#cccccc" stroke="none" mask="url(#clip3)" />
    <path d="M 943 362  L 985 362  L 985 404  L 943 404  L 943 362  " fill-rule="nonzero" fill="#ffffff" stroke="none" mask="url(#clip3)" />
    <path d="M 968.75 373  C 966.65 373  965 371.35  965 369.25  C 965 367.15  966.65 365.5  968.75 365.5  C 970.85 365.5  972.5 367.15  972.5 369.25  C 972.5 371.35  970.85 373  968.75 373  " fill-rule="nonzero" fill="#cccccc" stroke="none" mask="url(#clip3)" />
    <path d="M 945 403  L 945 381.55  L 954.75 371.8  L 968.4 379.6  L 976.2 377.65  L 984 379.6  L 984 403  L 945 403  " fill-rule="nonzero" fill="#169bd5" stroke="none" mask="url(#clip3)" />
  </g>
</svg>