<?xml version="1.0" encoding="utf-8"?>
<svg version="1.1" xmlns:xlink="http://www.w3.org/1999/xlink" width="80px" height="80px" xmlns="http://www.w3.org/2000/svg">
  <g transform="matrix(1 0 0 1 -678 -379 )">
    <path d="M 678 379  L 758 379  L 758 459  L 678 459  L 678 379  " fill-rule="nonzero" fill="#cccccc" stroke="none" />
    <path d="M 684 385  L 752 385  L 752 453  L 684 453  L 684 385  " fill-rule="nonzero" fill="#ffffff" stroke="none" />
    <path d="M 725.6 403  C 722.24 403  719.6 400.36  719.6 397  C 719.6 393.64  722.24 391  725.6 391  C 728.96 391  731.6 393.64  731.6 397  C 731.6 400.36  728.96 403  725.6 403  " fill-rule="nonzero" fill="#cccccc" stroke="none" />
    <path d="M 686 451  L 686 415.8  L 702 399.8  L 724.4 412.6  L 737.2 409.4  L 750 412.6  L 750 451  L 686 451  " fill-rule="nonzero" fill="#169bd5" stroke="none" />
  </g>
</svg>