<?xml version="1.0" encoding="utf-8"?>
<svg version="1.1" xmlns:xlink="http://www.w3.org/1999/xlink" width="62px" height="59px" xmlns="http://www.w3.org/2000/svg">
  <g transform="matrix(1 0 0 1 -1285 -264 )">
    <path d="M 1285 264  L 1347 264  L 1347 323  L 1285 323  L 1285 264  " fill-rule="nonzero" fill="#cccccc" stroke="none" />
    <path d="M 1289 268  L 1343 268  L 1343 319  L 1289 319  L 1289 268  " fill-rule="nonzero" fill="#ffffff" stroke="none" />
    <path d="M 1321.665 281.7  C 1319.187 281.7  1317.24 279.753  1317.24 277.275  C 1317.24 274.797  1319.187 272.85  1321.665 272.85  C 1324.143 272.85  1326.09 274.797  1326.09 277.275  C 1326.09 279.753  1324.143 281.7  1321.665 281.7  " fill-rule="nonzero" fill="#cccccc" stroke="none" />
    <path d="M 1291 318  L 1291 291.6  L 1303.75 279.6  L 1321.6 290.593548387097  L 1331.8 286.8  L 1342 290.593548387097  L 1342 318  L 1291 318  " fill-rule="nonzero" fill="#169bd5" stroke="none" />
  </g>
</svg>