<?xml version="1.0" encoding="utf-8"?>
<svg version="1.1" xmlns:xlink="http://www.w3.org/1999/xlink" width="15px" height="15px" viewBox="112 98.5  15 15" xmlns="http://www.w3.org/2000/svg">
  <path d="M 119.5 98.5  C 123.7 98.5  127 101.8  127 106  C 127 110.2  123.7 113.5  119.5 113.5  C 115.3 113.5  112 110.2  112 106  C 112 101.8  115.3 98.5  119.5 98.5  Z " fill-rule="nonzero" fill="#ffffff" stroke="none" />
  <path d="M 119.5 99  C 123.42 99  126.5 102.08  126.5 106  C 126.5 109.92  123.42 113  119.5 113  C 115.58 113  112.5 109.92  112.5 106  C 112.5 102.08  115.58 99  119.5 99  Z " stroke-width="1" stroke="#797979" fill="none" />
  <path d="M 119.5 109.75  C 117.4 109.75  115.75 108.1  115.75 106  C 115.75 103.9  117.4 102.25  119.5 102.25  C 121.6 102.25  123.25 103.9  123.25 106  C 123.25 108.1  121.6 109.75  119.5 109.75  " fill-rule="nonzero" fill="#797979" stroke="none" />
</svg>