<?xml version="1.0" encoding="utf-8"?>
<svg version="1.1" xmlns:xlink="http://www.w3.org/1999/xlink" width="15px" height="15px" viewBox="112 145.5  15 15" xmlns="http://www.w3.org/2000/svg">
  <path d="M 119.5 145.5  C 123.7 145.5  127 148.8  127 153  C 127 157.2  123.7 160.5  119.5 160.5  C 115.3 160.5  112 157.2  112 153  C 112 148.8  115.3 145.5  119.5 145.5  Z " fill-rule="nonzero" fill="#f0f0f0" stroke="none" />
  <path d="M 119.5 146  C 123.42 146  126.5 149.08  126.5 153  C 126.5 156.92  123.42 160  119.5 160  C 115.58 160  112.5 156.92  112.5 153  C 112.5 149.08  115.58 146  119.5 146  Z " stroke-width="1" stroke="#797979" fill="none" />
  <path d="M 119.5 156.75  C 117.4 156.75  115.75 155.1  115.75 153  C 115.75 150.9  117.4 149.25  119.5 149.25  C 121.6 149.25  123.25 150.9  123.25 153  C 123.25 155.1  121.6 156.75  119.5 156.75  " fill-rule="nonzero" fill="#797979" stroke="none" />
</svg>