<?xml version="1.0" encoding="utf-8"?>
<svg version="1.1" xmlns:xlink="http://www.w3.org/1999/xlink" width="15px" height="15px" viewBox="112 191.5  15 15" xmlns="http://www.w3.org/2000/svg">
  <path d="M 119.5 191.5  C 123.7 191.5  127 194.8  127 199  C 127 203.2  123.7 206.5  119.5 206.5  C 115.3 206.5  112 203.2  112 199  C 112 194.8  115.3 191.5  119.5 191.5  Z " fill-rule="nonzero" fill="#ffffff" stroke="none" />
  <path d="M 119.5 192  C 123.42 192  126.5 195.08  126.5 199  C 126.5 202.92  123.42 206  119.5 206  C 115.58 206  112.5 202.92  112.5 199  C 112.5 195.08  115.58 192  119.5 192  Z " stroke-width="1" stroke="#797979" fill="none" />
  <path d="M 119.5 202.75  C 117.4 202.75  115.75 201.1  115.75 199  C 115.75 196.9  117.4 195.25  119.5 195.25  C 121.6 195.25  123.25 196.9  123.25 199  C 123.25 201.1  121.6 202.75  119.5 202.75  " fill-rule="nonzero" fill="#797979" stroke="none" />
</svg>