<?xml version="1.0" encoding="utf-8"?>
<svg version="1.1" xmlns:xlink="http://www.w3.org/1999/xlink" width="15px" height="15px" viewBox="80 122.5  15 15" xmlns="http://www.w3.org/2000/svg">
  <path d="M 87.5 122.5  C 91.7 122.5  95 125.8  95 130  C 95 134.2  91.7 137.5  87.5 137.5  C 83.3 137.5  80 134.2  80 130  C 80 125.8  83.3 122.5  87.5 122.5  Z " fill-rule="nonzero" fill="#f0f0f0" stroke="none" />
  <path d="M 87.5 123  C 91.42 123  94.5 126.08  94.5 130  C 94.5 133.92  91.42 137  87.5 137  C 83.58 137  80.5 133.92  80.5 130  C 80.5 126.08  83.58 123  87.5 123  Z " stroke-width="1" stroke="#797979" fill="none" />
  <path d="M 87.5 133.75  C 85.4 133.75  83.75 132.1  83.75 130  C 83.75 127.9  85.4 126.25  87.5 126.25  C 89.6 126.25  91.25 127.9  91.25 130  C 91.25 132.1  89.6 133.75  87.5 133.75  " fill-rule="nonzero" fill="#797979" stroke="none" />
</svg>