<?xml version="1.0" encoding="utf-8"?>
<svg version="1.1" xmlns:xlink="http://www.w3.org/1999/xlink" width="15px" height="15px" viewBox="80 163.5  15 15" xmlns="http://www.w3.org/2000/svg">
  <path d="M 87.5 163.5  C 91.7 163.5  95 166.8  95 171  C 95 175.2  91.7 178.5  87.5 178.5  C 83.3 178.5  80 175.2  80 171  C 80 166.8  83.3 163.5  87.5 163.5  Z " fill-rule="nonzero" fill="#f0f0f0" stroke="none" />
  <path d="M 87.5 164  C 91.42 164  94.5 167.08  94.5 171  C 94.5 174.92  91.42 178  87.5 178  C 83.58 178  80.5 174.92  80.5 171  C 80.5 167.08  83.58 164  87.5 164  Z " stroke-width="1" stroke="#797979" fill="none" />
  <path d="M 87.5 174.75  C 85.4 174.75  83.75 173.1  83.75 171  C 83.75 168.9  85.4 167.25  87.5 167.25  C 89.6 167.25  91.25 168.9  91.25 171  C 91.25 173.1  89.6 174.75  87.5 174.75  " fill-rule="nonzero" fill="#797979" stroke="none" />
</svg>