<?xml version="1.0" encoding="utf-8"?>
<svg version="1.1" xmlns:xlink="http://www.w3.org/1999/xlink" width="15px" height="15px" viewBox="80 81.5  15 15" xmlns="http://www.w3.org/2000/svg">
  <path d="M 87.5 81.5  C 91.7 81.5  95 84.8  95 89  C 95 93.2  91.7 96.5  87.5 96.5  C 83.3 96.5  80 93.2  80 89  C 80 84.8  83.3 81.5  87.5 81.5  Z " fill-rule="nonzero" fill="#ffffff" stroke="none" />
  <path d="M 87.5 82  C 91.42 82  94.5 85.08  94.5 89  C 94.5 92.92  91.42 96  87.5 96  C 83.58 96  80.5 92.92  80.5 89  C 80.5 85.08  83.58 82  87.5 82  Z " stroke-width="1" stroke="#797979" fill="none" />
  <path d="M 87.5 92.75  C 85.4 92.75  83.75 91.1  83.75 89  C 83.75 86.9  85.4 85.25  87.5 85.25  C 89.6 85.25  91.25 86.9  91.25 89  C 91.25 91.1  89.6 92.75  87.5 92.75  " fill-rule="nonzero" fill="#797979" stroke="none" />
</svg>