<?xml version="1.0" encoding="utf-8"?>
<svg version="1.1" xmlns:xlink="http://www.w3.org/1999/xlink" width="15px" height="15px" viewBox="80 204.5  15 15" xmlns="http://www.w3.org/2000/svg">
  <path d="M 87.5 204.5  C 91.7 204.5  95 207.8  95 212  C 95 216.2  91.7 219.5  87.5 219.5  C 83.3 219.5  80 216.2  80 212  C 80 207.8  83.3 204.5  87.5 204.5  Z " fill-rule="nonzero" fill="#ffffff" stroke="none" />
  <path d="M 87.5 205  C 91.42 205  94.5 208.08  94.5 212  C 94.5 215.92  91.42 219  87.5 219  C 83.58 219  80.5 215.92  80.5 212  C 80.5 208.08  83.58 205  87.5 205  Z " stroke-width="1" stroke="#797979" fill="none" />
  <path d="M 87.5 215.75  C 85.4 215.75  83.75 214.1  83.75 212  C 83.75 209.9  85.4 208.25  87.5 208.25  C 89.6 208.25  91.25 209.9  91.25 212  C 91.25 214.1  89.6 215.75  87.5 215.75  " fill-rule="nonzero" fill="#797979" stroke="none" />
</svg>