<?xml version="1.0" encoding="utf-8"?>
<svg version="1.1" xmlns:xlink="http://www.w3.org/1999/xlink" width="400px" height="120px" xmlns="http://www.w3.org/2000/svg">
  <g transform="matrix(1 0 0 1 0 -85 )">
    <path d="M 0 85  L 400 85  L 400 205  L 0 205  L 0 85  " fill-rule="nonzero" fill="#cccccc" stroke="none" />
    <path d="M 8 93  L 392 93  L 392 197  L 8 197  L 8 93  " fill-rule="nonzero" fill="#ffffff" stroke="none" />
    <path d="M 217 121  C 211.96 121  208 117.04  208 112  C 208 106.96  211.96 103  217 103  C 222.04 103  226 106.96  226 112  C 226 117.04  222.04 121  217 121  " fill-rule="nonzero" fill="#cccccc" stroke="none" />
    <path d="M 11 194  L 11 140.1  L 105.5 115.6  L 237.8 176.36  L 313.4 130.3  L 389 176.36  L 389 194  L 11 194  " fill-rule="nonzero" fill="#169bd5" stroke="none" />
  </g>
</svg>