<?xml version="1.0" encoding="utf-8"?>
<svg version="1.1" xmlns:xlink="http://www.w3.org/1999/xlink" width="12px" height="12px" viewBox="249 733  12 12" xmlns="http://www.w3.org/2000/svg">
  <path d="M 255 733  C 258.36 733  261 735.64  261 739  C 261 742.36  258.36 745  255 745  C 251.64 745  249 742.36  249 739  C 249 735.64  251.64 733  255 733  Z " fill-rule="nonzero" fill="#ffffff" stroke="none" />
  <path d="M 255 733.5  C 258.08 733.5  260.5 735.92  260.5 739  C 260.5 742.08  258.08 744.5  255 744.5  C 251.92 744.5  249.5 742.08  249.5 739  C 249.5 735.92  251.92 733.5  255 733.5  Z " stroke-width="1" stroke="#797979" fill="none" />
  <path d="M 255 742  C 253.32 742  252 740.68  252 739  C 252 737.32  253.32 736  255 736  C 256.68 736  258 737.32  258 739  C 258 740.68  256.68 742  255 742  " fill-rule="nonzero" fill="#797979" stroke="none" />
</svg>