<?xml version="1.0" encoding="utf-8"?>
<svg version="1.1" xmlns:xlink="http://www.w3.org/1999/xlink" width="12px" height="12px" viewBox="249 776  12 12" xmlns="http://www.w3.org/2000/svg">
  <path d="M 255 776  C 258.36 776  261 778.64  261 782  C 261 785.36  258.36 788  255 788  C 251.64 788  249 785.36  249 782  C 249 778.64  251.64 776  255 776  Z " fill-rule="nonzero" fill="#ffffff" stroke="none" />
  <path d="M 255 776.5  C 258.08 776.5  260.5 778.92  260.5 782  C 260.5 785.08  258.08 787.5  255 787.5  C 251.92 787.5  249.5 785.08  249.5 782  C 249.5 778.92  251.92 776.5  255 776.5  Z " stroke-width="1" stroke="#797979" fill="none" />
  <path d="M 255 785  C 253.32 785  252 783.68  252 782  C 252 780.32  253.32 779  255 779  C 256.68 779  258 780.32  258 782  C 258 783.68  256.68 785  255 785  " fill-rule="nonzero" fill="#797979" stroke="none" />
</svg>