<?xml version="1.0" encoding="utf-8"?>
<svg version="1.1" xmlns:xlink="http://www.w3.org/1999/xlink" width="12px" height="12px" viewBox="249 880  12 12" xmlns="http://www.w3.org/2000/svg">
  <path d="M 255 880  C 258.36 880  261 882.64  261 886  C 261 889.36  258.36 892  255 892  C 251.64 892  249 889.36  249 886  C 249 882.64  251.64 880  255 880  Z " fill-rule="nonzero" fill="#ffffff" stroke="none" />
  <path d="M 255 880.5  C 258.08 880.5  260.5 882.92  260.5 886  C 260.5 889.08  258.08 891.5  255 891.5  C 251.92 891.5  249.5 889.08  249.5 886  C 249.5 882.92  251.92 880.5  255 880.5  Z " stroke-width="1" stroke="#797979" fill="none" />
  <path d="M 255 889  C 253.32 889  252 887.68  252 886  C 252 884.32  253.32 883  255 883  C 256.68 883  258 884.32  258 886  C 258 887.68  256.68 889  255 889  " fill-rule="nonzero" fill="#797979" stroke="none" />
</svg>