<?xml version="1.0" encoding="utf-8"?>
<svg version="1.1" xmlns:xlink="http://www.w3.org/1999/xlink" width="12px" height="12px" viewBox="420 776  12 12" xmlns="http://www.w3.org/2000/svg">
  <path d="M 426 776  C 429.36 776  432 778.64  432 782  C 432 785.36  429.36 788  426 788  C 422.64 788  420 785.36  420 782  C 420 778.64  422.64 776  426 776  Z " fill-rule="nonzero" fill="#ffffff" stroke="none" />
  <path d="M 426 776.5  C 429.08 776.5  431.5 778.92  431.5 782  C 431.5 785.08  429.08 787.5  426 787.5  C 422.92 787.5  420.5 785.08  420.5 782  C 420.5 778.92  422.92 776.5  426 776.5  Z " stroke-width="1" stroke="#797979" fill="none" />
  <path d="M 426 785  C 424.32 785  423 783.68  423 782  C 423 780.32  424.32 779  426 779  C 427.68 779  429 780.32  429 782  C 429 783.68  427.68 785  426 785  " fill-rule="nonzero" fill="#797979" stroke="none" />
</svg>