<?xml version="1.0" encoding="utf-8"?>
<svg version="1.1" xmlns:xlink="http://www.w3.org/1999/xlink" width="12px" height="12px" viewBox="249 1108  12 12" xmlns="http://www.w3.org/2000/svg">
  <path d="M 255 1108  C 258.36 1108  261 1110.64  261 1114  C 261 1117.36  258.36 1120  255 1120  C 251.64 1120  249 1117.36  249 1114  C 249 1110.64  251.64 1108  255 1108  Z " fill-rule="nonzero" fill="#ffffff" stroke="none" />
  <path d="M 255 1108.5  C 258.08 1108.5  260.5 1110.92  260.5 1114  C 260.5 1117.08  258.08 1119.5  255 1119.5  C 251.92 1119.5  249.5 1117.08  249.5 1114  C 249.5 1110.92  251.92 1108.5  255 1108.5  Z " stroke-width="1" stroke="#797979" fill="none" />
  <path d="M 255 1117  C 253.32 1117  252 1115.68  252 1114  C 252 1112.32  253.32 1111  255 1111  C 256.68 1111  258 1112.32  258 1114  C 258 1115.68  256.68 1117  255 1117  " fill-rule="nonzero" fill="#797979" stroke="none" />
</svg>