<?xml version="1.0" encoding="utf-8"?>
<svg version="1.1" xmlns:xlink="http://www.w3.org/1999/xlink" width="12px" height="12px" viewBox="249 814  12 12" xmlns="http://www.w3.org/2000/svg">
  <path d="M 255 814  C 258.36 814  261 816.64  261 820  C 261 823.36  258.36 826  255 826  C 251.64 826  249 823.36  249 820  C 249 816.64  251.64 814  255 814  Z " fill-rule="nonzero" fill="#f0f0f0" stroke="none" />
  <path d="M 255 814.5  C 258.08 814.5  260.5 816.92  260.5 820  C 260.5 823.08  258.08 825.5  255 825.5  C 251.92 825.5  249.5 823.08  249.5 820  C 249.5 816.92  251.92 814.5  255 814.5  Z " stroke-width="1" stroke="#797979" fill="none" />
  <path d="M 255 823  C 253.32 823  252 821.68  252 820  C 252 818.32  253.32 817  255 817  C 256.68 817  258 818.32  258 820  C 258 821.68  256.68 823  255 823  " fill-rule="nonzero" fill="#797979" stroke="none" />
</svg>