<?xml version="1.0" encoding="utf-8"?>
<svg version="1.1" xmlns:xlink="http://www.w3.org/1999/xlink" width="12px" height="12px" viewBox="242 510  12 12" xmlns="http://www.w3.org/2000/svg">
  <path d="M 248 510  C 251.36 510  254 512.64  254 516  C 254 519.36  251.36 522  248 522  C 244.64 522  242 519.36  242 516  C 242 512.64  244.64 510  248 510  Z " fill-rule="nonzero" fill="#ffffff" stroke="none" />
  <path d="M 248 510.5  C 251.08 510.5  253.5 512.92  253.5 516  C 253.5 519.08  251.08 521.5  248 521.5  C 244.92 521.5  242.5 519.08  242.5 516  C 242.5 512.92  244.92 510.5  248 510.5  Z " stroke-width="1" stroke="#797979" fill="none" />
  <path d="M 248 519  C 246.32 519  245 517.68  245 516  C 245 514.32  246.32 513  248 513  C 249.68 513  251 514.32  251 516  C 251 517.68  249.68 519  248 519  " fill-rule="nonzero" fill="#797979" stroke="none" />
</svg>