<?xml version="1.0" encoding="utf-8"?>
<svg version="1.1" xmlns:xlink="http://www.w3.org/1999/xlink" width="12px" height="12px" viewBox="857 850  12 12" xmlns="http://www.w3.org/2000/svg">
  <path d="M 863 850  C 866.36 850  869 852.64  869 856  C 869 859.36  866.36 862  863 862  C 859.64 862  857 859.36  857 856  C 857 852.64  859.64 850  863 850  Z " fill-rule="nonzero" fill="#ffffff" stroke="none" />
  <path d="M 863 850.5  C 866.08 850.5  868.5 852.92  868.5 856  C 868.5 859.08  866.08 861.5  863 861.5  C 859.92 861.5  857.5 859.08  857.5 856  C 857.5 852.92  859.92 850.5  863 850.5  Z " stroke-width="1" stroke="#797979" fill="none" />
  <path d="M 863 859  C 861.32 859  860 857.68  860 856  C 860 854.32  861.32 853  863 853  C 864.68 853  866 854.32  866 856  C 866 857.68  864.68 859  863 859  " fill-rule="nonzero" fill="#797979" stroke="none" />
</svg>