<?xml version="1.0" encoding="utf-8"?>
<svg version="1.1" xmlns:xlink="http://www.w3.org/1999/xlink" width="12px" height="12px" viewBox="857 737  12 12" xmlns="http://www.w3.org/2000/svg">
  <path d="M 863 737  C 866.36 737  869 739.64  869 743  C 869 746.36  866.36 749  863 749  C 859.64 749  857 746.36  857 743  C 857 739.64  859.64 737  863 737  Z " fill-rule="nonzero" fill="#f0f0f0" stroke="none" />
  <path d="M 863 737.5  C 866.08 737.5  868.5 739.92  868.5 743  C 868.5 746.08  866.08 748.5  863 748.5  C 859.92 748.5  857.5 746.08  857.5 743  C 857.5 739.92  859.92 737.5  863 737.5  Z " stroke-width="1" stroke="#797979" fill="none" />
  <path d="M 863 746  C 861.32 746  860 744.68  860 743  C 860 741.32  861.32 740  863 740  C 864.68 740  866 741.32  866 743  C 866 744.68  864.68 746  863 746  " fill-rule="nonzero" fill="#797979" stroke="none" />
</svg>