<?xml version="1.0" encoding="utf-8"?>
<svg version="1.1" xmlns:xlink="http://www.w3.org/1999/xlink" width="12px" height="12px" viewBox="857 812  12 12" xmlns="http://www.w3.org/2000/svg">
  <path d="M 863 812  C 866.36 812  869 814.64  869 818  C 869 821.36  866.36 824  863 824  C 859.64 824  857 821.36  857 818  C 857 814.64  859.64 812  863 812  Z " fill-rule="nonzero" fill="#ffffff" stroke="none" />
  <path d="M 863 812.5  C 866.08 812.5  868.5 814.92  868.5 818  C 868.5 821.08  866.08 823.5  863 823.5  C 859.92 823.5  857.5 821.08  857.5 818  C 857.5 814.92  859.92 812.5  863 812.5  Z " stroke-width="1" stroke="#797979" fill="none" />
  <path d="M 863 821  C 861.32 821  860 819.68  860 818  C 860 816.32  861.32 815  863 815  C 864.68 815  866 816.32  866 818  C 866 819.68  864.68 821  863 821  " fill-rule="nonzero" fill="#797979" stroke="none" />
</svg>