<?xml version="1.0" encoding="utf-8"?>
<svg version="1.1" xmlns:xlink="http://www.w3.org/1999/xlink" width="12px" height="12px" viewBox="1028 737  12 12" xmlns="http://www.w3.org/2000/svg">
  <path d="M 1034 737  C 1037.36 737  1040 739.64  1040 743  C 1040 746.36  1037.36 749  1034 749  C 1030.64 749  1028 746.36  1028 743  C 1028 739.64  1030.64 737  1034 737  Z " fill-rule="nonzero" fill="#f0f0f0" stroke="none" />
  <path d="M 1034 737.5  C 1037.08 737.5  1039.5 739.92  1039.5 743  C 1039.5 746.08  1037.08 748.5  1034 748.5  C 1030.92 748.5  1028.5 746.08  1028.5 743  C 1028.5 739.92  1030.92 737.5  1034 737.5  Z " stroke-width="1" stroke="#797979" fill="none" />
  <path d="M 1034 746  C 1032.32 746  1031 744.68  1031 743  C 1031 741.32  1032.32 740  1034 740  C 1035.68 740  1037 741.32  1037 743  C 1037 744.68  1035.68 746  1034 746  " fill-rule="nonzero" fill="#797979" stroke="none" />
</svg>