<?xml version="1.0" encoding="utf-8"?>
<svg version="1.1" xmlns:xlink="http://www.w3.org/1999/xlink" width="12px" height="12px" viewBox="1028 812  12 12" xmlns="http://www.w3.org/2000/svg">
  <path d="M 1034 812  C 1037.36 812  1040 814.64  1040 818  C 1040 821.36  1037.36 824  1034 824  C 1030.64 824  1028 821.36  1028 818  C 1028 814.64  1030.64 812  1034 812  Z " fill-rule="nonzero" fill="#ffffff" stroke="none" />
  <path d="M 1034 812.5  C 1037.08 812.5  1039.5 814.92  1039.5 818  C 1039.5 821.08  1037.08 823.5  1034 823.5  C 1030.92 823.5  1028.5 821.08  1028.5 818  C 1028.5 814.92  1030.92 812.5  1034 812.5  Z " stroke-width="1" stroke="#797979" fill="none" />
  <path d="M 1034 821  C 1032.32 821  1031 819.68  1031 818  C 1031 816.32  1032.32 815  1034 815  C 1035.68 815  1037 816.32  1037 818  C 1037 819.68  1035.68 821  1034 821  " fill-rule="nonzero" fill="#797979" stroke="none" />
</svg>