<?xml version="1.0" encoding="utf-8"?>
<svg version="1.1" xmlns:xlink="http://www.w3.org/1999/xlink" width="12px" height="12px" viewBox="857 883  12 12" xmlns="http://www.w3.org/2000/svg">
  <path d="M 863 883  C 866.36 883  869 885.64  869 889  C 869 892.36  866.36 895  863 895  C 859.64 895  857 892.36  857 889  C 857 885.64  859.64 883  863 883  Z " fill-rule="nonzero" fill="#f0f0f0" stroke="none" />
  <path d="M 863 883.5  C 866.08 883.5  868.5 885.92  868.5 889  C 868.5 892.08  866.08 894.5  863 894.5  C 859.92 894.5  857.5 892.08  857.5 889  C 857.5 885.92  859.92 883.5  863 883.5  Z " stroke-width="1" stroke="#797979" fill="none" />
  <path d="M 863 892  C 861.32 892  860 890.68  860 889  C 860 887.32  861.32 886  863 886  C 864.68 886  866 887.32  866 889  C 866 890.68  864.68 892  863 892  " fill-rule="nonzero" fill="#797979" stroke="none" />
</svg>