<?xml version="1.0" encoding="utf-8"?>
<svg version="1.1" xmlns:xlink="http://www.w3.org/1999/xlink" width="12px" height="12px" viewBox="1028 1066  12 12" xmlns="http://www.w3.org/2000/svg">
  <path d="M 1034 1066  C 1037.36 1066  1040 1068.64  1040 1072  C 1040 1075.36  1037.36 1078  1034 1078  C 1030.64 1078  1028 1075.36  1028 1072  C 1028 1068.64  1030.64 1066  1034 1066  Z " fill-rule="nonzero" fill="#f0f0f0" stroke="none" />
  <path d="M 1034 1066.5  C 1037.08 1066.5  1039.5 1068.92  1039.5 1072  C 1039.5 1075.08  1037.08 1077.5  1034 1077.5  C 1030.92 1077.5  1028.5 1075.08  1028.5 1072  C 1028.5 1068.92  1030.92 1066.5  1034 1066.5  Z " stroke-width="1" stroke="#797979" fill="none" />
  <path d="M 1034 1075  C 1032.32 1075  1031 1073.68  1031 1072  C 1031 1070.32  1032.32 1069  1034 1069  C 1035.68 1069  1037 1070.32  1037 1072  C 1037 1073.68  1035.68 1075  1034 1075  " fill-rule="nonzero" fill="#797979" stroke="none" />
</svg>