<?xml version="1.0" encoding="utf-8"?>
<svg version="1.1" xmlns:xlink="http://www.w3.org/1999/xlink" width="12px" height="12px" viewBox="857 1066  12 12" xmlns="http://www.w3.org/2000/svg">
  <path d="M 863 1066  C 866.36 1066  869 1068.64  869 1072  C 869 1075.36  866.36 1078  863 1078  C 859.64 1078  857 1075.36  857 1072  C 857 1068.64  859.64 1066  863 1066  Z " fill-rule="nonzero" fill="#ffffff" stroke="none" />
  <path d="M 863 1066.5  C 866.08 1066.5  868.5 1068.92  868.5 1072  C 868.5 1075.08  866.08 1077.5  863 1077.5  C 859.92 1077.5  857.5 1075.08  857.5 1072  C 857.5 1068.92  859.92 1066.5  863 1066.5  Z " stroke-width="1" stroke="#797979" fill="none" />
  <path d="M 863 1075  C 861.32 1075  860 1073.68  860 1072  C 860 1070.32  861.32 1069  863 1069  C 864.68 1069  866 1070.32  866 1072  C 866 1073.68  864.68 1075  863 1075  " fill-rule="nonzero" fill="#797979" stroke="none" />
</svg>