<?xml version="1.0" encoding="utf-8"?>
<svg version="1.1" xmlns:xlink="http://www.w3.org/1999/xlink" width="12px" height="12px" viewBox="850 510  12 12" xmlns="http://www.w3.org/2000/svg">
  <path d="M 856 510  C 859.36 510  862 512.64  862 516  C 862 519.36  859.36 522  856 522  C 852.64 522  850 519.36  850 516  C 850 512.64  852.64 510  856 510  Z " fill-rule="nonzero" fill="#f0f0f0" stroke="none" />
  <path d="M 856 510.5  C 859.08 510.5  861.5 512.92  861.5 516  C 861.5 519.08  859.08 521.5  856 521.5  C 852.92 521.5  850.5 519.08  850.5 516  C 850.5 512.92  852.92 510.5  856 510.5  Z " stroke-width="1" stroke="#797979" fill="none" />
  <path d="M 856 519  C 854.32 519  853 517.68  853 516  C 853 514.32  854.32 513  856 513  C 857.68 513  859 514.32  859 516  C 859 517.68  857.68 519  856 519  " fill-rule="nonzero" fill="#797979" stroke="none" />
</svg>