<?xml version="1.0" encoding="utf-8"?>
<svg version="1.1" xmlns:xlink="http://www.w3.org/1999/xlink" width="12px" height="12px" viewBox="1474 924  12 12" xmlns="http://www.w3.org/2000/svg">
  <path d="M 1480 924  C 1483.36 924  1486 926.64  1486 930  C 1486 933.36  1483.36 936  1480 936  C 1476.64 936  1474 933.36  1474 930  C 1474 926.64  1476.64 924  1480 924  Z " fill-rule="nonzero" fill="#ffffff" stroke="none" />
  <path d="M 1480 924.5  C 1483.08 924.5  1485.5 926.92  1485.5 930  C 1485.5 933.08  1483.08 935.5  1480 935.5  C 1476.92 935.5  1474.5 933.08  1474.5 930  C 1474.5 926.92  1476.92 924.5  1480 924.5  Z " stroke-width="1" stroke="#797979" fill="none" />
  <path d="M 1480 933  C 1478.32 933  1477 931.68  1477 930  C 1477 928.32  1478.32 927  1480 927  C 1481.68 927  1483 928.32  1483 930  C 1483 931.68  1481.68 933  1480 933  " fill-rule="nonzero" fill="#797979" stroke="none" />
</svg>