<?xml version="1.0" encoding="utf-8"?>
<svg version="1.1" xmlns:xlink="http://www.w3.org/1999/xlink" width="12px" height="12px" viewBox="1645 781  12 12" xmlns="http://www.w3.org/2000/svg">
  <path d="M 1651 781  C 1654.36 781  1657 783.64  1657 787  C 1657 790.36  1654.36 793  1651 793  C 1647.64 793  1645 790.36  1645 787  C 1645 783.64  1647.64 781  1651 781  Z " fill-rule="nonzero" fill="#ffffff" stroke="none" />
  <path d="M 1651 781.5  C 1654.08 781.5  1656.5 783.92  1656.5 787  C 1656.5 790.08  1654.08 792.5  1651 792.5  C 1647.92 792.5  1645.5 790.08  1645.5 787  C 1645.5 783.92  1647.92 781.5  1651 781.5  Z " stroke-width="1" stroke="#797979" fill="none" />
  <path d="M 1651 790  C 1649.32 790  1648 788.68  1648 787  C 1648 785.32  1649.32 784  1651 784  C 1652.68 784  1654 785.32  1654 787  C 1654 788.68  1652.68 790  1651 790  " fill-rule="nonzero" fill="#797979" stroke="none" />
</svg>