<?xml version="1.0" encoding="utf-8"?>
<svg version="1.1" xmlns:xlink="http://www.w3.org/1999/xlink" width="12px" height="12px" viewBox="1474 1068  12 12" xmlns="http://www.w3.org/2000/svg">
  <path d="M 1480 1068  C 1483.36 1068  1486 1070.64  1486 1074  C 1486 1077.36  1483.36 1080  1480 1080  C 1476.64 1080  1474 1077.36  1474 1074  C 1474 1070.64  1476.64 1068  1480 1068  Z " fill-rule="nonzero" fill="#ffffff" stroke="none" />
  <path d="M 1480 1068.5  C 1483.08 1068.5  1485.5 1070.92  1485.5 1074  C 1485.5 1077.08  1483.08 1079.5  1480 1079.5  C 1476.92 1079.5  1474.5 1077.08  1474.5 1074  C 1474.5 1070.92  1476.92 1068.5  1480 1068.5  Z " stroke-width="1" stroke="#797979" fill="none" />
  <path d="M 1480 1077  C 1478.32 1077  1477 1075.68  1477 1074  C 1477 1072.32  1478.32 1071  1480 1071  C 1481.68 1071  1483 1072.32  1483 1074  C 1483 1075.68  1481.68 1077  1480 1077  " fill-rule="nonzero" fill="#797979" stroke="none" />
</svg>