<?xml version="1.0" encoding="utf-8"?>
<svg version="1.1" xmlns:xlink="http://www.w3.org/1999/xlink" width="12px" height="12px" viewBox="1645 1068  12 12" xmlns="http://www.w3.org/2000/svg">
  <path d="M 1651 1068  C 1654.36 1068  1657 1070.64  1657 1074  C 1657 1077.36  1654.36 1080  1651 1080  C 1647.64 1080  1645 1077.36  1645 1074  C 1645 1070.64  1647.64 1068  1651 1068  Z " fill-rule="nonzero" fill="#ffffff" stroke="none" />
  <path d="M 1651 1068.5  C 1654.08 1068.5  1656.5 1070.92  1656.5 1074  C 1656.5 1077.08  1654.08 1079.5  1651 1079.5  C 1647.92 1079.5  1645.5 1077.08  1645.5 1074  C 1645.5 1070.92  1647.92 1068.5  1651 1068.5  Z " stroke-width="1" stroke="#797979" fill="none" />
  <path d="M 1651 1077  C 1649.32 1077  1648 1075.68  1648 1074  C 1648 1072.32  1649.32 1071  1651 1071  C 1652.68 1071  1654 1072.32  1654 1074  C 1654 1075.68  1652.68 1077  1651 1077  " fill-rule="nonzero" fill="#797979" stroke="none" />
</svg>