<?xml version="1.0" encoding="utf-8"?>
<svg version="1.1" xmlns:xlink="http://www.w3.org/1999/xlink" width="12px" height="12px" viewBox="1467 465  12 12" xmlns="http://www.w3.org/2000/svg">
  <path d="M 1473 465  C 1476.36 465  1479 467.64  1479 471  C 1479 474.36  1476.36 477  1473 477  C 1469.64 477  1467 474.36  1467 471  C 1467 467.64  1469.64 465  1473 465  Z " fill-rule="nonzero" fill="#f0f0f0" stroke="none" />
  <path d="M 1473 465.5  C 1476.08 465.5  1478.5 467.92  1478.5 471  C 1478.5 474.08  1476.08 476.5  1473 476.5  C 1469.92 476.5  1467.5 474.08  1467.5 471  C 1467.5 467.92  1469.92 465.5  1473 465.5  Z " stroke-width="1" stroke="#797979" fill="none" />
  <path d="M 1473 474  C 1471.32 474  1470 472.68  1470 471  C 1470 469.32  1471.32 468  1473 468  C 1474.68 468  1476 469.32  1476 471  C 1476 472.68  1474.68 474  1473 474  " fill-rule="nonzero" fill="#797979" stroke="none" />
</svg>