<?xml version="1.0" encoding="utf-8"?>
<svg version="1.1" xmlns:xlink="http://www.w3.org/1999/xlink" width="12px" height="12px" viewBox="1474 1022  12 12" xmlns="http://www.w3.org/2000/svg">
  <path d="M 1480 1022  C 1483.36 1022  1486 1024.64  1486 1028  C 1486 1031.36  1483.36 1034  1480 1034  C 1476.64 1034  1474 1031.36  1474 1028  C 1474 1024.64  1476.64 1022  1480 1022  Z " fill-rule="nonzero" fill="#f0f0f0" stroke="none" />
  <path d="M 1480 1022.5  C 1483.08 1022.5  1485.5 1024.92  1485.5 1028  C 1485.5 1031.08  1483.08 1033.5  1480 1033.5  C 1476.92 1033.5  1474.5 1031.08  1474.5 1028  C 1474.5 1024.92  1476.92 1022.5  1480 1022.5  Z " stroke-width="1" stroke="#797979" fill="none" />
  <path d="M 1480 1031  C 1478.32 1031  1477 1029.68  1477 1028  C 1477 1026.32  1478.32 1025  1480 1025  C 1481.68 1025  1483 1026.32  1483 1028  C 1483 1029.68  1481.68 1031  1480 1031  " fill-rule="nonzero" fill="#797979" stroke="none" />
</svg>