<?xml version="1.0" encoding="utf-8"?>
<svg version="1.1" xmlns:xlink="http://www.w3.org/1999/xlink" width="12px" height="12px" viewBox="1646 816  12 12" xmlns="http://www.w3.org/2000/svg">
  <path d="M 1652 816  C 1655.36 816  1658 818.64  1658 822  C 1658 825.36  1655.36 828  1652 828  C 1648.64 828  1646 825.36  1646 822  C 1646 818.64  1648.64 816  1652 816  Z " fill-rule="nonzero" fill="#f0f0f0" stroke="none" />
  <path d="M 1652 816.5  C 1655.08 816.5  1657.5 818.92  1657.5 822  C 1657.5 825.08  1655.08 827.5  1652 827.5  C 1648.92 827.5  1646.5 825.08  1646.5 822  C 1646.5 818.92  1648.92 816.5  1652 816.5  Z " stroke-width="1" stroke="#797979" fill="none" />
  <path d="M 1652 825  C 1650.32 825  1649 823.68  1649 822  C 1649 820.32  1650.32 819  1652 819  C 1653.68 819  1655 820.32  1655 822  C 1655 823.68  1653.68 825  1652 825  " fill-rule="nonzero" fill="#797979" stroke="none" />
</svg>