<?xml version="1.0" encoding="utf-8"?>
<svg version="1.1" xmlns:xlink="http://www.w3.org/1999/xlink" width="100px" height="100px" xmlns="http://www.w3.org/2000/svg">
  <g transform="matrix(1 0 0 1 -25 -392 )">
    <path d="M 25 392  L 125 392  L 125 492  L 25 492  L 25 392  " fill-rule="nonzero" fill="#cccccc" stroke="none" />
    <path d="M 32 399  L 118 399  L 118 485  L 32 485  L 32 399  " fill-rule="nonzero" fill="#ffffff" stroke="none" />
    <path d="M 84.5 422  C 80.3 422  77 418.7  77 414.5  C 77 410.3  80.3 407  84.5 407  C 88.7 407  92 410.3  92 414.5  C 92 418.7  88.7 422  84.5 422  " fill-rule="nonzero" fill="#cccccc" stroke="none" />
    <path d="M 35 483  L 35 438.45  L 55.25 418.2  L 83.6 434.4  L 99.8 430.35  L 116 434.4  L 116 483  L 35 483  " fill-rule="nonzero" fill="#169bd5" stroke="none" />
  </g>
</svg>