<?xml version="1.0" encoding="utf-8"?>
<svg version="1.1" xmlns:xlink="http://www.w3.org/1999/xlink" width="15px" height="15px" viewBox="178 757  15 15" xmlns="http://www.w3.org/2000/svg">
  <path d="M 185.5 757  C 189.7 757  193 760.3  193 764.5  C 193 768.7  189.7 772  185.5 772  C 181.3 772  178 768.7  178 764.5  C 178 760.3  181.3 757  185.5 757  Z " fill-rule="nonzero" fill="#ffffff" stroke="none" />
  <path d="M 185.5 757.5  C 189.42 757.5  192.5 760.58  192.5 764.5  C 192.5 768.42  189.42 771.5  185.5 771.5  C 181.58 771.5  178.5 768.42  178.5 764.5  C 178.5 760.58  181.58 757.5  185.5 757.5  Z " stroke-width="1" stroke="#797979" fill="none" />
  <path d="M 185.5 768.25  C 183.4 768.25  181.75 766.6  181.75 764.5  C 181.75 762.4  183.4 760.75  185.5 760.75  C 187.6 760.75  189.25 762.4  189.25 764.5  C 189.25 766.6  187.6 768.25  185.5 768.25  " fill-rule="nonzero" fill="#797979" stroke="none" />
</svg>