<?xml version="1.0" encoding="utf-8"?>
<svg version="1.1" xmlns:xlink="http://www.w3.org/1999/xlink" width="15px" height="15px" viewBox="279 757  15 15" xmlns="http://www.w3.org/2000/svg">
  <path d="M 286.5 757  C 290.7 757  294 760.3  294 764.5  C 294 768.7  290.7 772  286.5 772  C 282.3 772  279 768.7  279 764.5  C 279 760.3  282.3 757  286.5 757  Z " fill-rule="nonzero" fill="#f0f0f0" stroke="none" />
  <path d="M 286.5 757.5  C 290.42 757.5  293.5 760.58  293.5 764.5  C 293.5 768.42  290.42 771.5  286.5 771.5  C 282.58 771.5  279.5 768.42  279.5 764.5  C 279.5 760.58  282.58 757.5  286.5 757.5  Z " stroke-width="1" stroke="#797979" fill="none" />
  <path d="M 286.5 768.25  C 284.4 768.25  282.75 766.6  282.75 764.5  C 282.75 762.4  284.4 760.75  286.5 760.75  C 288.6 760.75  290.25 762.4  290.25 764.5  C 290.25 766.6  288.6 768.25  286.5 768.25  " fill-rule="nonzero" fill="#797979" stroke="none" />
</svg>