<?xml version="1.0" encoding="utf-8"?>
<svg version="1.1" xmlns:xlink="http://www.w3.org/1999/xlink" width="80px" height="80px" xmlns="http://www.w3.org/2000/svg">
  <g transform="matrix(1 0 0 1 -26 -945 )">
    <path d="M 26 945  L 106 945  L 106 1025  L 26 1025  L 26 945  " fill-rule="nonzero" fill="#cccccc" stroke="none" />
    <path d="M 32 951  L 100 951  L 100 1019  L 32 1019  L 32 951  " fill-rule="nonzero" fill="#ffffff" stroke="none" />
    <path d="M 73.6 969  C 70.24 969  67.6 966.36  67.6 963  C 67.6 959.64  70.24 957  73.6 957  C 76.96 957  79.6 959.64  79.6 963  C 79.6 966.36  76.96 969  73.6 969  " fill-rule="nonzero" fill="#cccccc" stroke="none" />
    <path d="M 34 1017  L 34 981.8  L 50 965.8  L 72.4 978.6  L 85.2 975.4  L 98 978.6  L 98 1017  L 34 1017  " fill-rule="nonzero" fill="#169bd5" stroke="none" />
  </g>
</svg>