<?xml version="1.0" encoding="utf-8"?>
<svg version="1.1" xmlns:xlink="http://www.w3.org/1999/xlink" width="130px" height="130px" xmlns="http://www.w3.org/2000/svg">
  <g transform="matrix(1 0 0 1 -43 -2390 )">
    <path d="M 43 2390  L 173 2390  L 173 2520  L 43 2520  L 43 2390  " fill-rule="nonzero" fill="#cccccc" stroke="none" />
    <path d="M 52 2399  L 164 2399  L 164 2511  L 52 2511  L 52 2399  " fill-rule="nonzero" fill="#ffffff" stroke="none" />
    <path d="M 120.35 2429  C 114.89 2429  110.6 2424.71  110.6 2419.25  C 110.6 2413.79  114.89 2409.5  120.35 2409.5  C 125.81 2409.5  130.1 2413.79  130.1 2419.25  C 130.1 2424.71  125.81 2429  120.35 2429  " fill-rule="nonzero" fill="#cccccc" stroke="none" />
    <path d="M 56 2508  L 56 2450.25  L 82.25 2424  L 119 2445  L 140 2439.75  L 161 2445  L 161 2508  L 56 2508  " fill-rule="nonzero" fill="#169bd5" stroke="none" />
  </g>
</svg>