<?xml version="1.0" encoding="utf-8"?>
<svg version="1.1" xmlns:xlink="http://www.w3.org/1999/xlink" width="70px" height="70px" xmlns="http://www.w3.org/2000/svg">
  <g transform="matrix(1 0 0 1 -30 -739 )">
    <path d="M 30 739  L 100 739  L 100 809  L 30 809  L 30 739  " fill-rule="nonzero" fill="#cccccc" stroke="none" />
    <path d="M 35 744  L 95 744  L 95 804  L 35 804  L 35 744  " fill-rule="nonzero" fill="#ffffff" stroke="none" />
    <path d="M 71.65 760  C 68.71 760  66.4 757.69  66.4 754.75  C 66.4 751.81  68.71 749.5  71.65 749.5  C 74.59 749.5  76.9 751.81  76.9 754.75  C 76.9 757.69  74.59 760  71.65 760  " fill-rule="nonzero" fill="#cccccc" stroke="none" />
    <path d="M 37 802  L 37 771.2  L 51 757.2  L 70.6 768.4  L 81.8 765.6  L 93 768.4  L 93 802  L 37 802  " fill-rule="nonzero" fill="#169bd5" stroke="none" />
  </g>
</svg>