<?xml version="1.0" encoding="utf-8"?>
<svg version="1.1" xmlns:xlink="http://www.w3.org/1999/xlink" width="150px" height="18px" xmlns="http://www.w3.org/2000/svg">
  <defs>
    <mask fill="white" id="clip1">
      <path d="M 0 15  L 0 3  C 0 1.31999999999994  1.43478260869564 0  3.26086956521739 0  L 53.7904124860657 0  L 146.739130434783 0  C 148.565217391304 0  150 1.31999999999994  150 3  L 150 15  C 150 16.6800000000001  148.565217391304 18  146.739130434783 18  L 3.26086956521739 18  C 1.43478260869564 18  0 16.6800000000001  0 15  Z " fill-rule="evenodd" />
    </mask>
  </defs>
  <g transform="matrix(1 0 0 1 -215 -712 )">
    <path d="M 0 15  L 0 3  C 0 1.31999999999994  1.43478260869564 0  3.26086956521739 0  L 53.7904124860657 0  L 146.739130434783 0  C 148.565217391304 0  150 1.31999999999994  150 3  L 150 15  C 150 16.6800000000001  148.565217391304 18  146.739130434783 18  L 3.26086956521739 18  C 1.43478260869564 18  0 16.6800000000001  0 15  Z " fill-rule="nonzero" fill="#ffffff" stroke="none" transform="matrix(1 0 0 1 215 712 )" />
    <path d="M 0 15  L 0 3  C 0 1.31999999999994  1.43478260869564 0  3.26086956521739 0  L 53.7904124860657 0  L 146.739130434783 0  C 148.565217391304 0  150 1.31999999999994  150 3  L 150 15  C 150 16.6800000000001  148.565217391304 18  146.739130434783 18  L 3.26086956521739 18  C 1.43478260869564 18  0 16.6800000000001  0 15  Z " stroke-width="2" stroke="#d9001b" fill="none" transform="matrix(1 0 0 1 215 712 )" mask="url(#clip1)" />
  </g>
</svg>