<?xml version="1.0" encoding="utf-8"?>
<svg version="1.1" xmlns:xlink="http://www.w3.org/1999/xlink" width="50px" height="50px" xmlns="http://www.w3.org/2000/svg">
  <g transform="matrix(1 0 0 1 -715 -1891 )">
    <path d="M 740 1891  C 754 1891  765 1902  765 1916  C 765 1930  754 1941  740 1941  C 726 1941  715 1930  715 1916  C 715 1902  726 1891  740 1891  Z " fill-rule="nonzero" fill="#ffffff" stroke="none" />
    <path d="M 740 1891.5  C 753.72 1891.5  764.5 1902.28  764.5 1916  C 764.5 1929.72  753.72 1940.5  740 1940.5  C 726.28 1940.5  715.5 1929.72  715.5 1916  C 715.5 1902.28  726.28 1891.5  740 1891.5  Z " stroke-width="1" stroke="#797979" fill="none" />
  </g>
</svg>