<?xml version="1.0" encoding="utf-8"?>
<svg version="1.1" xmlns:xlink="http://www.w3.org/1999/xlink" width="398px" height="400px" xmlns="http://www.w3.org/2000/svg">
  <g>
    <path d="M 0 0  L 398 0  L 398 400  L 0 400  L 0 0  " fill-rule="nonzero" fill="#cccccc" stroke="none" />
    <path d="M 28 28  L 370 28  L 370 372  L 28 372  L 28 28  " fill-rule="nonzero" fill="#ffffff" stroke="none" />
    <path d="M 236.81 119.7  C 220.094 119.7  206.96 106.566  206.96 89.85  C 206.96 73.134  220.094 60  236.81 60  C 253.526 60  266.66 73.134  266.66 89.85  C 266.66 106.566  253.526 119.7  236.81 119.7  " fill-rule="nonzero" fill="#cccccc" stroke="none" />
    <path d="M 38 362  L 38 183.8  L 118.5 102.8  L 231.2 167.6  L 295.6 151.4  L 360 167.6  L 360 362  L 38 362  " fill-rule="nonzero" fill="#169bd5" stroke="none" />
  </g>
</svg>