<?xml version="1.0" encoding="utf-8"?>
<svg version="1.1" xmlns:xlink="http://www.w3.org/1999/xlink" width="400px" height="400px" xmlns="http://www.w3.org/2000/svg">
  <g transform="matrix(1 0 0 1 0 -83 )">
    <path d="M 0 83  L 400 83  L 400 483  L 0 483  L 0 83  " fill-rule="nonzero" fill="#cccccc" stroke="none" />
    <path d="M 28 111  L 372 111  L 372 455  L 28 455  L 28 111  " fill-rule="nonzero" fill="#ffffff" stroke="none" />
    <path d="M 238 203  C 221.2 203  208 189.8  208 173  C 208 156.2  221.2 143  238 143  C 254.8 143  268 156.2  268 173  C 268 189.8  254.8 203  238 203  " fill-rule="nonzero" fill="#cccccc" stroke="none" />
    <path d="M 38 445  L 38 266.8  L 119 185.8  L 232.4 250.6  L 297.2 234.4  L 362 250.6  L 362 445  L 38 445  " fill-rule="nonzero" fill="#169bd5" stroke="none" />
  </g>
</svg>