<?xml version="1.0" encoding="utf-8"?>
<svg version="1.1" xmlns:xlink="http://www.w3.org/1999/xlink" width="98px" height="57px" xmlns="http://www.w3.org/2000/svg">
  <g transform="matrix(1 0 0 1 -296 -1161 )">
    <path d="M 296.5 1209.35714285714  C 296.5 1209.35714285714  296.5 1161.5  296.5 1161.5  C 296.5 1161.5  393.5 1161.5  393.5 1161.5  C 393.5 1161.5  393.5 1209.35714285714  393.5 1209.35714285714  C 393.5 1209.35714285714  341.375041900938 1209.35714285714  341.375041900938 1209.35714285714  C 341.375041900938 1209.35714285714  330.378891935551 1216.91500097001  330.378891935551 1216.91500097001  C 330.378891935551 1216.91500097001  321.717785733127 1209.35714285714  321.717785733127 1209.35714285714  C 321.717785733127 1209.35714285714  296.5 1209.35714285714  296.5 1209.35714285714  Z " fill-rule="nonzero" fill="#000000" stroke="none" />
    <path d="M 296 1209.85714285714  C 296 1209.85714285714  296 1161  296 1161  C 296 1161  394 1161  394 1161  C 394 1161  394 1209.85714285714  394 1209.85714285714  C 394 1209.85714285714  341.530303030303 1209.85714285714  341.530303030303 1209.85714285714  C 341.530303030303 1209.85714285714  330.342424242425 1217.54677975086  330.342424242425 1217.54677975086  C 330.342424242425 1217.54677975086  321.530303030303 1209.85714285714  321.530303030303 1209.85714285714  C 321.530303030303 1209.85714285714  296 1209.85714285714  296 1209.85714285714  Z M 297 1208.85714285714  C 297 1208.85714285714  321.905268435951 1208.85714285714  321.905268435951 1208.85714285714  C 321.905268435951 1208.85714285714  330.415359628677 1216.28322218915  330.415359628677 1216.28322218915  C 330.415359628677 1216.28322218915  341.219780771572 1208.85714285714  341.219780771572 1208.85714285714  C 341.219780771572 1208.85714285714  393 1208.85714285714  393 1208.85714285714  C 393 1208.85714285714  393 1162  393 1162  C 393 1162  297 1162  297 1162  C 297 1162  297 1208.85714285714  297 1208.85714285714  Z " fill-rule="nonzero" fill="#797979" stroke="none" />
  </g>
</svg>