<?xml version="1.0" encoding="utf-8"?>
<svg version="1.1" xmlns:xlink="http://www.w3.org/1999/xlink" width="320px" height="506px" xmlns="http://www.w3.org/2000/svg">
  <g transform="matrix(1 0 0 1 -1435 -182 )">
    <path d="M 1435 182  L 1755 182  L 1755 688  L 1435 688  L 1435 182  " fill-rule="nonzero" fill="#cccccc" stroke="none" />
    <path d="M 1457 204  L 1733 204  L 1733 666  L 1457 666  L 1457 204  " fill-rule="nonzero" fill="#ffffff" stroke="none" />
    <path d="M 1625.4 305.9  C 1611.96 305.9  1601.4 295.34  1601.4 281.9  C 1601.4 268.46  1611.96 257.9  1625.4 257.9  C 1638.84 257.9  1649.4 268.46  1649.4 281.9  C 1649.4 295.34  1638.84 305.9  1625.4 305.9  " fill-rule="nonzero" fill="#cccccc" stroke="none" />
    <path d="M 1465 658  L 1465 412.7  L 1530 301.2  L 1621 390.4  L 1673 368.1  L 1725 390.4  L 1725 658  L 1465 658  " fill-rule="nonzero" fill="#169bd5" stroke="none" />
  </g>
</svg>